M48
;DRILL file {KiCad (5.0.0)} date 11/11/18 21:07:22
;FORMAT={-:-/ absolute / inch / decimal}
FMAT,2
INCH,TZ
T1C0.0157
T2C0.0400
%
G90
G05
M72
T1
X5.51Y-3.14
X5.5975Y-3.56
X5.7625Y-3.35
X5.78Y-3.34
X5.78Y-3.34
X5.78Y-3.34
X5.78Y-3.34
X5.78Y-3.34
X5.78Y-3.34
X5.78Y-3.34
X5.78Y-3.34
X5.78Y-3.34
X5.78Y-3.34
X5.78Y-3.34
X5.78Y-3.36
X5.7975Y-3.35
X5.8725Y-3.5675
X5.9375Y-3.025
X5.9375Y-3.1175
X5.96Y-3.025
X5.96Y-3.1175
X5.9825Y-3.025
X5.9825Y-3.1175
X6.03Y-3.6125
T2
X5.4Y-2.85
X5.4Y-2.95
X5.4Y-3.05
X5.4Y-3.15
X5.4Y-3.25
X5.4Y-3.35
X5.4Y-3.45
X5.4Y-3.55
X6.3Y-2.85
X6.3Y-2.95
X6.3Y-3.05
X6.3Y-3.15
X6.3Y-3.25
X6.3Y-3.35
X6.3Y-3.45
X6.3Y-3.55
T0
M30
