G04 #@! TF.GenerationSoftware,KiCad,Pcbnew,(5.0.0)*
G04 #@! TF.CreationDate,2018-11-11T21:07:20+01:00*
G04 #@! TF.ProjectId,Platine,506C6174696E652E6B696361645F7063,rev?*
G04 #@! TF.SameCoordinates,Original*
G04 #@! TF.FileFunction,Copper,L2,Bot,Signal*
G04 #@! TF.FilePolarity,Positive*
%FSLAX46Y46*%
G04 Gerber Fmt 4.6, Leading zero omitted, Abs format (unit mm)*
G04 Created by KiCad (PCBNEW (5.0.0)) date 11/11/18 21:07:20*
%MOMM*%
%LPD*%
G01*
G04 APERTURE LIST*
G04 #@! TA.AperFunction,ComponentPad*
%ADD10C,1.800000*%
G04 #@! TD*
G04 #@! TA.AperFunction,ViaPad*
%ADD11C,0.600000*%
G04 #@! TD*
G04 #@! TA.AperFunction,Conductor*
%ADD12C,2.000000*%
G04 #@! TD*
G04 #@! TA.AperFunction,Conductor*
%ADD13C,0.800000*%
G04 #@! TD*
G04 #@! TA.AperFunction,Conductor*
%ADD14C,0.600000*%
G04 #@! TD*
G04 #@! TA.AperFunction,Conductor*
%ADD15C,1.000000*%
G04 #@! TD*
G04 #@! TA.AperFunction,Conductor*
%ADD16C,0.254000*%
G04 #@! TD*
G04 APERTURE END LIST*
D10*
G04 #@! TO.P,U1,16*
G04 #@! TO.N,+3V3*
X160020000Y-90170000D03*
G04 #@! TO.P,U1,1*
G04 #@! TO.N,+5V*
X137160000Y-90170000D03*
G04 #@! TO.P,U1,15*
G04 #@! TO.N,Net-(R3-Pad2)*
X160020000Y-87630000D03*
G04 #@! TO.P,U1,2*
G04 #@! TO.N,GND*
X137160000Y-87630000D03*
G04 #@! TO.P,U1,14*
G04 #@! TO.N,Net-(J6-Pad1)*
X160020000Y-85090000D03*
G04 #@! TO.P,U1,3*
G04 #@! TO.N,Net-(J7-Pad1)*
X137160000Y-85090000D03*
G04 #@! TO.P,U1,13*
G04 #@! TO.N,Net-(R4-Pad1)*
X160020000Y-82550000D03*
G04 #@! TO.P,U1,4*
G04 #@! TO.N,Net-(J9-Pad1)*
X137160000Y-82550000D03*
G04 #@! TO.P,U1,12*
G04 #@! TO.N,Net-(J13-Pad1)*
X160020000Y-80010000D03*
G04 #@! TO.P,U1,5*
G04 #@! TO.N,N/C*
X137160000Y-80010000D03*
G04 #@! TO.P,U1,11*
X160020000Y-77470000D03*
G04 #@! TO.P,U1,6*
G04 #@! TO.N,Net-(R6-Pad2)*
X137160000Y-77470000D03*
G04 #@! TO.P,U1,10*
G04 #@! TO.N,Net-(C1-Pad1)*
X160020000Y-74930000D03*
G04 #@! TO.P,U1,7*
G04 #@! TO.N,Net-(J20-Pad1)*
X137160000Y-74930000D03*
G04 #@! TO.P,U1,9*
G04 #@! TO.N,N/C*
X160020000Y-72390000D03*
G04 #@! TO.P,U1,8*
G04 #@! TO.N,Net-(J21-Pad1)*
X137160000Y-72390000D03*
G04 #@! TD*
D11*
G04 #@! TO.N,+3V3*
X153162000Y-91757500D03*
X149161500Y-90614500D03*
X146812000Y-84836000D03*
X146812000Y-84836000D03*
X146812000Y-84836000D03*
X146812000Y-84836000D03*
X146812000Y-84836000D03*
X146812000Y-84836000D03*
X146812000Y-84836000D03*
X146812000Y-85344000D03*
X146812000Y-84836000D03*
X146812000Y-84836000D03*
X147256500Y-85090000D03*
X146812000Y-84836000D03*
X146812000Y-84836000D03*
X146367500Y-85090000D03*
G04 #@! TO.N,GND*
X150812500Y-79184500D03*
X139954000Y-79756000D03*
X151384000Y-79184500D03*
X151955500Y-79184500D03*
X151384000Y-76835000D03*
X150812500Y-76835000D03*
X151955500Y-76835000D03*
G04 #@! TO.N,Net-(J6-Pad1)*
X142176500Y-90424000D03*
G04 #@! TD*
D12*
G04 #@! TO.N,+3V3*
X151638000Y-90170000D02*
X146812000Y-85344000D01*
D13*
X151193500Y-90614500D02*
X151638000Y-90170000D01*
X149161500Y-90614500D02*
X151193500Y-90614500D01*
X153461999Y-90505001D02*
X153797000Y-90170000D01*
X153461999Y-91457501D02*
X153461999Y-90505001D01*
X153162000Y-91757500D02*
X153461999Y-91457501D01*
D12*
X160020000Y-90170000D02*
X153797000Y-90170000D01*
X153797000Y-90170000D02*
X151638000Y-90170000D01*
G04 #@! TO.N,GND*
X151384000Y-77851000D02*
X148211792Y-77851000D01*
X138432792Y-87630000D02*
X137160000Y-87630000D01*
D14*
X142941292Y-82743292D02*
X142941292Y-83121500D01*
X139954000Y-79756000D02*
X142941292Y-82743292D01*
D12*
X148211792Y-77851000D02*
X142941292Y-83121500D01*
X142941292Y-83121500D02*
X138432792Y-87630000D01*
D15*
G04 #@! TO.N,Net-(J6-Pad1)*
X158747208Y-85090000D02*
X156842208Y-83185000D01*
X160020000Y-85090000D02*
X158747208Y-85090000D01*
X156842208Y-83185000D02*
X145923000Y-83185000D01*
X145923000Y-83185000D02*
X142176500Y-86931500D01*
X142176500Y-86931500D02*
X142176500Y-90424000D01*
G04 #@! TD*
D16*
G04 #@! TO.N,GND*
G36*
X158676845Y-71621517D02*
X158485000Y-72084670D01*
X158485000Y-72695330D01*
X158718690Y-73259507D01*
X159119183Y-73660000D01*
X158718690Y-74060493D01*
X158485000Y-74624670D01*
X158485000Y-75235330D01*
X158718690Y-75799507D01*
X159119183Y-76200000D01*
X158718690Y-76600493D01*
X158485000Y-77164670D01*
X158485000Y-77775330D01*
X158718690Y-78339507D01*
X159119183Y-78740000D01*
X158718690Y-79140493D01*
X158485000Y-79704670D01*
X158485000Y-80315330D01*
X158718690Y-80879507D01*
X159119183Y-81280000D01*
X158718690Y-81680493D01*
X158485000Y-82244670D01*
X158485000Y-82855330D01*
X158718690Y-83419507D01*
X159119183Y-83820000D01*
X159100761Y-83838422D01*
X157723821Y-82461482D01*
X157660497Y-82366711D01*
X157285063Y-82115854D01*
X156953991Y-82050000D01*
X156842208Y-82027765D01*
X156730425Y-82050000D01*
X146034782Y-82050000D01*
X145922999Y-82027765D01*
X145480145Y-82115854D01*
X145104711Y-82366711D01*
X145041389Y-82461479D01*
X141452982Y-86049887D01*
X141358211Y-86113211D01*
X141175771Y-86386253D01*
X141107354Y-86488646D01*
X141019265Y-86931500D01*
X141041500Y-87043283D01*
X141041501Y-90535783D01*
X141107355Y-90866855D01*
X141358212Y-91242289D01*
X141733646Y-91493146D01*
X142176500Y-91581235D01*
X142619355Y-91493146D01*
X142994789Y-91242289D01*
X143245646Y-90866855D01*
X143311500Y-90535783D01*
X143311500Y-87401631D01*
X145182160Y-85530971D01*
X145271865Y-85981945D01*
X145542015Y-86386253D01*
X148789067Y-89633305D01*
X148757663Y-89639552D01*
X148415307Y-89868307D01*
X148186552Y-90210663D01*
X148106224Y-90614500D01*
X148186552Y-91018337D01*
X148415307Y-91360693D01*
X148757663Y-91589448D01*
X149059565Y-91649500D01*
X150909306Y-91649500D01*
X151000054Y-91710136D01*
X151561428Y-91821800D01*
X144593462Y-91821800D01*
X144526000Y-91808381D01*
X144458539Y-91821800D01*
X144458538Y-91821800D01*
X144258727Y-91861545D01*
X144032143Y-92012943D01*
X143880745Y-92239527D01*
X143827581Y-92506800D01*
X143841001Y-92574267D01*
X143841000Y-97867000D01*
X136321000Y-97867000D01*
X136321000Y-91483946D01*
X136854670Y-91705000D01*
X137465330Y-91705000D01*
X138029507Y-91471310D01*
X138461310Y-91039507D01*
X138695000Y-90475330D01*
X138695000Y-89864670D01*
X138461310Y-89300493D01*
X138029507Y-88868690D01*
X138009885Y-88860562D01*
X138060554Y-88710159D01*
X137160000Y-87809605D01*
X137145858Y-87823748D01*
X136966253Y-87644143D01*
X136980395Y-87630000D01*
X137339605Y-87630000D01*
X138240159Y-88530554D01*
X138496643Y-88444148D01*
X138706458Y-87870664D01*
X138680839Y-87260540D01*
X138496643Y-86815852D01*
X138240159Y-86729446D01*
X137339605Y-87630000D01*
X136980395Y-87630000D01*
X136966253Y-87615858D01*
X137145858Y-87436253D01*
X137160000Y-87450395D01*
X138060554Y-86549841D01*
X138009885Y-86399438D01*
X138029507Y-86391310D01*
X138461310Y-85959507D01*
X138695000Y-85395330D01*
X138695000Y-84784670D01*
X138461310Y-84220493D01*
X138060817Y-83820000D01*
X138461310Y-83419507D01*
X138695000Y-82855330D01*
X138695000Y-82244670D01*
X138461310Y-81680493D01*
X138060817Y-81280000D01*
X138461310Y-80879507D01*
X138695000Y-80315330D01*
X138695000Y-79704670D01*
X138461310Y-79140493D01*
X138060817Y-78740000D01*
X138461310Y-78339507D01*
X138695000Y-77775330D01*
X138695000Y-77164670D01*
X138461310Y-76600493D01*
X138060817Y-76200000D01*
X138461310Y-75799507D01*
X138695000Y-75235330D01*
X138695000Y-74624670D01*
X138461310Y-74060493D01*
X138060817Y-73660000D01*
X138461310Y-73259507D01*
X138695000Y-72695330D01*
X138695000Y-72084670D01*
X138482399Y-71571406D01*
X158676845Y-71621517D01*
X158676845Y-71621517D01*
G37*
X158676845Y-71621517D02*
X158485000Y-72084670D01*
X158485000Y-72695330D01*
X158718690Y-73259507D01*
X159119183Y-73660000D01*
X158718690Y-74060493D01*
X158485000Y-74624670D01*
X158485000Y-75235330D01*
X158718690Y-75799507D01*
X159119183Y-76200000D01*
X158718690Y-76600493D01*
X158485000Y-77164670D01*
X158485000Y-77775330D01*
X158718690Y-78339507D01*
X159119183Y-78740000D01*
X158718690Y-79140493D01*
X158485000Y-79704670D01*
X158485000Y-80315330D01*
X158718690Y-80879507D01*
X159119183Y-81280000D01*
X158718690Y-81680493D01*
X158485000Y-82244670D01*
X158485000Y-82855330D01*
X158718690Y-83419507D01*
X159119183Y-83820000D01*
X159100761Y-83838422D01*
X157723821Y-82461482D01*
X157660497Y-82366711D01*
X157285063Y-82115854D01*
X156953991Y-82050000D01*
X156842208Y-82027765D01*
X156730425Y-82050000D01*
X146034782Y-82050000D01*
X145922999Y-82027765D01*
X145480145Y-82115854D01*
X145104711Y-82366711D01*
X145041389Y-82461479D01*
X141452982Y-86049887D01*
X141358211Y-86113211D01*
X141175771Y-86386253D01*
X141107354Y-86488646D01*
X141019265Y-86931500D01*
X141041500Y-87043283D01*
X141041501Y-90535783D01*
X141107355Y-90866855D01*
X141358212Y-91242289D01*
X141733646Y-91493146D01*
X142176500Y-91581235D01*
X142619355Y-91493146D01*
X142994789Y-91242289D01*
X143245646Y-90866855D01*
X143311500Y-90535783D01*
X143311500Y-87401631D01*
X145182160Y-85530971D01*
X145271865Y-85981945D01*
X145542015Y-86386253D01*
X148789067Y-89633305D01*
X148757663Y-89639552D01*
X148415307Y-89868307D01*
X148186552Y-90210663D01*
X148106224Y-90614500D01*
X148186552Y-91018337D01*
X148415307Y-91360693D01*
X148757663Y-91589448D01*
X149059565Y-91649500D01*
X150909306Y-91649500D01*
X151000054Y-91710136D01*
X151561428Y-91821800D01*
X144593462Y-91821800D01*
X144526000Y-91808381D01*
X144458539Y-91821800D01*
X144458538Y-91821800D01*
X144258727Y-91861545D01*
X144032143Y-92012943D01*
X143880745Y-92239527D01*
X143827581Y-92506800D01*
X143841001Y-92574267D01*
X143841000Y-97867000D01*
X136321000Y-97867000D01*
X136321000Y-91483946D01*
X136854670Y-91705000D01*
X137465330Y-91705000D01*
X138029507Y-91471310D01*
X138461310Y-91039507D01*
X138695000Y-90475330D01*
X138695000Y-89864670D01*
X138461310Y-89300493D01*
X138029507Y-88868690D01*
X138009885Y-88860562D01*
X138060554Y-88710159D01*
X137160000Y-87809605D01*
X137145858Y-87823748D01*
X136966253Y-87644143D01*
X136980395Y-87630000D01*
X137339605Y-87630000D01*
X138240159Y-88530554D01*
X138496643Y-88444148D01*
X138706458Y-87870664D01*
X138680839Y-87260540D01*
X138496643Y-86815852D01*
X138240159Y-86729446D01*
X137339605Y-87630000D01*
X136980395Y-87630000D01*
X136966253Y-87615858D01*
X137145858Y-87436253D01*
X137160000Y-87450395D01*
X138060554Y-86549841D01*
X138009885Y-86399438D01*
X138029507Y-86391310D01*
X138461310Y-85959507D01*
X138695000Y-85395330D01*
X138695000Y-84784670D01*
X138461310Y-84220493D01*
X138060817Y-83820000D01*
X138461310Y-83419507D01*
X138695000Y-82855330D01*
X138695000Y-82244670D01*
X138461310Y-81680493D01*
X138060817Y-81280000D01*
X138461310Y-80879507D01*
X138695000Y-80315330D01*
X138695000Y-79704670D01*
X138461310Y-79140493D01*
X138060817Y-78740000D01*
X138461310Y-78339507D01*
X138695000Y-77775330D01*
X138695000Y-77164670D01*
X138461310Y-76600493D01*
X138060817Y-76200000D01*
X138461310Y-75799507D01*
X138695000Y-75235330D01*
X138695000Y-74624670D01*
X138461310Y-74060493D01*
X138060817Y-73660000D01*
X138461310Y-73259507D01*
X138695000Y-72695330D01*
X138695000Y-72084670D01*
X138482399Y-71571406D01*
X158676845Y-71621517D01*
G04 #@! TD*
M02*
