G04 #@! TF.GenerationSoftware,KiCad,Pcbnew,(5.0.0)*
G04 #@! TF.CreationDate,2018-11-11T21:07:20+01:00*
G04 #@! TF.ProjectId,Platine,506C6174696E652E6B696361645F7063,rev?*
G04 #@! TF.SameCoordinates,Original*
G04 #@! TF.FileFunction,Copper,L1,Top,Signal*
G04 #@! TF.FilePolarity,Positive*
%FSLAX46Y46*%
G04 Gerber Fmt 4.6, Leading zero omitted, Abs format (unit mm)*
G04 Created by KiCad (PCBNEW (5.0.0)) date 11/11/18 21:07:20*
%MOMM*%
%LPD*%
G01*
G04 APERTURE LIST*
G04 #@! TA.AperFunction,SMDPad,CuDef*
%ADD10R,0.800000X1.900000*%
G04 #@! TD*
G04 #@! TA.AperFunction,Conductor*
%ADD11C,0.100000*%
G04 #@! TD*
G04 #@! TA.AperFunction,SMDPad,CuDef*
%ADD12C,0.950000*%
G04 #@! TD*
G04 #@! TA.AperFunction,ComponentPad*
%ADD13C,1.800000*%
G04 #@! TD*
G04 #@! TA.AperFunction,SMDPad,CuDef*
%ADD14C,1.150000*%
G04 #@! TD*
G04 #@! TA.AperFunction,BGAPad,CuDef*
%ADD15C,3.000000*%
G04 #@! TD*
G04 #@! TA.AperFunction,ViaPad*
%ADD16C,0.600000*%
G04 #@! TD*
G04 #@! TA.AperFunction,Conductor*
%ADD17C,2.000000*%
G04 #@! TD*
G04 #@! TA.AperFunction,Conductor*
%ADD18C,0.800000*%
G04 #@! TD*
G04 #@! TA.AperFunction,Conductor*
%ADD19C,0.600000*%
G04 #@! TD*
G04 #@! TA.AperFunction,Conductor*
%ADD20C,1.500000*%
G04 #@! TD*
G04 #@! TA.AperFunction,Conductor*
%ADD21C,0.254000*%
G04 #@! TD*
G04 APERTURE END LIST*
D10*
G04 #@! TO.P,Q1,1*
G04 #@! TO.N,Net-(Q1-Pad1)*
X143126500Y-79780000D03*
G04 #@! TO.P,Q1,2*
G04 #@! TO.N,GND*
X141226500Y-79780000D03*
G04 #@! TO.P,Q1,3*
G04 #@! TO.N,Net-(J18-Pad1)*
X142176500Y-82780000D03*
G04 #@! TD*
D11*
G04 #@! TO.N,Net-(J7-Pad1)*
G04 #@! TO.C,R1*
G36*
X146501779Y-91283644D02*
X146524834Y-91287063D01*
X146547443Y-91292727D01*
X146569387Y-91300579D01*
X146590457Y-91310544D01*
X146610448Y-91322526D01*
X146629168Y-91336410D01*
X146646438Y-91352062D01*
X146662090Y-91369332D01*
X146675974Y-91388052D01*
X146687956Y-91408043D01*
X146697921Y-91429113D01*
X146705773Y-91451057D01*
X146711437Y-91473666D01*
X146714856Y-91496721D01*
X146716000Y-91520000D01*
X146716000Y-91995000D01*
X146714856Y-92018279D01*
X146711437Y-92041334D01*
X146705773Y-92063943D01*
X146697921Y-92085887D01*
X146687956Y-92106957D01*
X146675974Y-92126948D01*
X146662090Y-92145668D01*
X146646438Y-92162938D01*
X146629168Y-92178590D01*
X146610448Y-92192474D01*
X146590457Y-92204456D01*
X146569387Y-92214421D01*
X146547443Y-92222273D01*
X146524834Y-92227937D01*
X146501779Y-92231356D01*
X146478500Y-92232500D01*
X145903500Y-92232500D01*
X145880221Y-92231356D01*
X145857166Y-92227937D01*
X145834557Y-92222273D01*
X145812613Y-92214421D01*
X145791543Y-92204456D01*
X145771552Y-92192474D01*
X145752832Y-92178590D01*
X145735562Y-92162938D01*
X145719910Y-92145668D01*
X145706026Y-92126948D01*
X145694044Y-92106957D01*
X145684079Y-92085887D01*
X145676227Y-92063943D01*
X145670563Y-92041334D01*
X145667144Y-92018279D01*
X145666000Y-91995000D01*
X145666000Y-91520000D01*
X145667144Y-91496721D01*
X145670563Y-91473666D01*
X145676227Y-91451057D01*
X145684079Y-91429113D01*
X145694044Y-91408043D01*
X145706026Y-91388052D01*
X145719910Y-91369332D01*
X145735562Y-91352062D01*
X145752832Y-91336410D01*
X145771552Y-91322526D01*
X145791543Y-91310544D01*
X145812613Y-91300579D01*
X145834557Y-91292727D01*
X145857166Y-91287063D01*
X145880221Y-91283644D01*
X145903500Y-91282500D01*
X146478500Y-91282500D01*
X146501779Y-91283644D01*
X146501779Y-91283644D01*
G37*
D12*
G04 #@! TD*
G04 #@! TO.P,R1,2*
G04 #@! TO.N,Net-(J7-Pad1)*
X146191000Y-91757500D03*
D11*
G04 #@! TO.N,+3V3*
G04 #@! TO.C,R1*
G36*
X148251779Y-91283644D02*
X148274834Y-91287063D01*
X148297443Y-91292727D01*
X148319387Y-91300579D01*
X148340457Y-91310544D01*
X148360448Y-91322526D01*
X148379168Y-91336410D01*
X148396438Y-91352062D01*
X148412090Y-91369332D01*
X148425974Y-91388052D01*
X148437956Y-91408043D01*
X148447921Y-91429113D01*
X148455773Y-91451057D01*
X148461437Y-91473666D01*
X148464856Y-91496721D01*
X148466000Y-91520000D01*
X148466000Y-91995000D01*
X148464856Y-92018279D01*
X148461437Y-92041334D01*
X148455773Y-92063943D01*
X148447921Y-92085887D01*
X148437956Y-92106957D01*
X148425974Y-92126948D01*
X148412090Y-92145668D01*
X148396438Y-92162938D01*
X148379168Y-92178590D01*
X148360448Y-92192474D01*
X148340457Y-92204456D01*
X148319387Y-92214421D01*
X148297443Y-92222273D01*
X148274834Y-92227937D01*
X148251779Y-92231356D01*
X148228500Y-92232500D01*
X147653500Y-92232500D01*
X147630221Y-92231356D01*
X147607166Y-92227937D01*
X147584557Y-92222273D01*
X147562613Y-92214421D01*
X147541543Y-92204456D01*
X147521552Y-92192474D01*
X147502832Y-92178590D01*
X147485562Y-92162938D01*
X147469910Y-92145668D01*
X147456026Y-92126948D01*
X147444044Y-92106957D01*
X147434079Y-92085887D01*
X147426227Y-92063943D01*
X147420563Y-92041334D01*
X147417144Y-92018279D01*
X147416000Y-91995000D01*
X147416000Y-91520000D01*
X147417144Y-91496721D01*
X147420563Y-91473666D01*
X147426227Y-91451057D01*
X147434079Y-91429113D01*
X147444044Y-91408043D01*
X147456026Y-91388052D01*
X147469910Y-91369332D01*
X147485562Y-91352062D01*
X147502832Y-91336410D01*
X147521552Y-91322526D01*
X147541543Y-91310544D01*
X147562613Y-91300579D01*
X147584557Y-91292727D01*
X147607166Y-91287063D01*
X147630221Y-91283644D01*
X147653500Y-91282500D01*
X148228500Y-91282500D01*
X148251779Y-91283644D01*
X148251779Y-91283644D01*
G37*
D12*
G04 #@! TD*
G04 #@! TO.P,R1,1*
G04 #@! TO.N,+3V3*
X147941000Y-91757500D03*
D11*
G04 #@! TO.N,+3V3*
G04 #@! TO.C,R2*
G36*
X152760279Y-91283644D02*
X152783334Y-91287063D01*
X152805943Y-91292727D01*
X152827887Y-91300579D01*
X152848957Y-91310544D01*
X152868948Y-91322526D01*
X152887668Y-91336410D01*
X152904938Y-91352062D01*
X152920590Y-91369332D01*
X152934474Y-91388052D01*
X152946456Y-91408043D01*
X152956421Y-91429113D01*
X152964273Y-91451057D01*
X152969937Y-91473666D01*
X152973356Y-91496721D01*
X152974500Y-91520000D01*
X152974500Y-91995000D01*
X152973356Y-92018279D01*
X152969937Y-92041334D01*
X152964273Y-92063943D01*
X152956421Y-92085887D01*
X152946456Y-92106957D01*
X152934474Y-92126948D01*
X152920590Y-92145668D01*
X152904938Y-92162938D01*
X152887668Y-92178590D01*
X152868948Y-92192474D01*
X152848957Y-92204456D01*
X152827887Y-92214421D01*
X152805943Y-92222273D01*
X152783334Y-92227937D01*
X152760279Y-92231356D01*
X152737000Y-92232500D01*
X152162000Y-92232500D01*
X152138721Y-92231356D01*
X152115666Y-92227937D01*
X152093057Y-92222273D01*
X152071113Y-92214421D01*
X152050043Y-92204456D01*
X152030052Y-92192474D01*
X152011332Y-92178590D01*
X151994062Y-92162938D01*
X151978410Y-92145668D01*
X151964526Y-92126948D01*
X151952544Y-92106957D01*
X151942579Y-92085887D01*
X151934727Y-92063943D01*
X151929063Y-92041334D01*
X151925644Y-92018279D01*
X151924500Y-91995000D01*
X151924500Y-91520000D01*
X151925644Y-91496721D01*
X151929063Y-91473666D01*
X151934727Y-91451057D01*
X151942579Y-91429113D01*
X151952544Y-91408043D01*
X151964526Y-91388052D01*
X151978410Y-91369332D01*
X151994062Y-91352062D01*
X152011332Y-91336410D01*
X152030052Y-91322526D01*
X152050043Y-91310544D01*
X152071113Y-91300579D01*
X152093057Y-91292727D01*
X152115666Y-91287063D01*
X152138721Y-91283644D01*
X152162000Y-91282500D01*
X152737000Y-91282500D01*
X152760279Y-91283644D01*
X152760279Y-91283644D01*
G37*
D12*
G04 #@! TD*
G04 #@! TO.P,R2,1*
G04 #@! TO.N,+3V3*
X152449500Y-91757500D03*
D11*
G04 #@! TO.N,Net-(J9-Pad1)*
G04 #@! TO.C,R2*
G36*
X151010279Y-91283644D02*
X151033334Y-91287063D01*
X151055943Y-91292727D01*
X151077887Y-91300579D01*
X151098957Y-91310544D01*
X151118948Y-91322526D01*
X151137668Y-91336410D01*
X151154938Y-91352062D01*
X151170590Y-91369332D01*
X151184474Y-91388052D01*
X151196456Y-91408043D01*
X151206421Y-91429113D01*
X151214273Y-91451057D01*
X151219937Y-91473666D01*
X151223356Y-91496721D01*
X151224500Y-91520000D01*
X151224500Y-91995000D01*
X151223356Y-92018279D01*
X151219937Y-92041334D01*
X151214273Y-92063943D01*
X151206421Y-92085887D01*
X151196456Y-92106957D01*
X151184474Y-92126948D01*
X151170590Y-92145668D01*
X151154938Y-92162938D01*
X151137668Y-92178590D01*
X151118948Y-92192474D01*
X151098957Y-92204456D01*
X151077887Y-92214421D01*
X151055943Y-92222273D01*
X151033334Y-92227937D01*
X151010279Y-92231356D01*
X150987000Y-92232500D01*
X150412000Y-92232500D01*
X150388721Y-92231356D01*
X150365666Y-92227937D01*
X150343057Y-92222273D01*
X150321113Y-92214421D01*
X150300043Y-92204456D01*
X150280052Y-92192474D01*
X150261332Y-92178590D01*
X150244062Y-92162938D01*
X150228410Y-92145668D01*
X150214526Y-92126948D01*
X150202544Y-92106957D01*
X150192579Y-92085887D01*
X150184727Y-92063943D01*
X150179063Y-92041334D01*
X150175644Y-92018279D01*
X150174500Y-91995000D01*
X150174500Y-91520000D01*
X150175644Y-91496721D01*
X150179063Y-91473666D01*
X150184727Y-91451057D01*
X150192579Y-91429113D01*
X150202544Y-91408043D01*
X150214526Y-91388052D01*
X150228410Y-91369332D01*
X150244062Y-91352062D01*
X150261332Y-91336410D01*
X150280052Y-91322526D01*
X150300043Y-91310544D01*
X150321113Y-91300579D01*
X150343057Y-91292727D01*
X150365666Y-91287063D01*
X150388721Y-91283644D01*
X150412000Y-91282500D01*
X150987000Y-91282500D01*
X151010279Y-91283644D01*
X151010279Y-91283644D01*
G37*
D12*
G04 #@! TD*
G04 #@! TO.P,R2,2*
G04 #@! TO.N,Net-(J9-Pad1)*
X150699500Y-91757500D03*
D11*
G04 #@! TO.N,Net-(J3-Pad1)*
G04 #@! TO.C,R3*
G36*
X156153779Y-89823144D02*
X156176834Y-89826563D01*
X156199443Y-89832227D01*
X156221387Y-89840079D01*
X156242457Y-89850044D01*
X156262448Y-89862026D01*
X156281168Y-89875910D01*
X156298438Y-89891562D01*
X156314090Y-89908832D01*
X156327974Y-89927552D01*
X156339956Y-89947543D01*
X156349921Y-89968613D01*
X156357773Y-89990557D01*
X156363437Y-90013166D01*
X156366856Y-90036221D01*
X156368000Y-90059500D01*
X156368000Y-90534500D01*
X156366856Y-90557779D01*
X156363437Y-90580834D01*
X156357773Y-90603443D01*
X156349921Y-90625387D01*
X156339956Y-90646457D01*
X156327974Y-90666448D01*
X156314090Y-90685168D01*
X156298438Y-90702438D01*
X156281168Y-90718090D01*
X156262448Y-90731974D01*
X156242457Y-90743956D01*
X156221387Y-90753921D01*
X156199443Y-90761773D01*
X156176834Y-90767437D01*
X156153779Y-90770856D01*
X156130500Y-90772000D01*
X155555500Y-90772000D01*
X155532221Y-90770856D01*
X155509166Y-90767437D01*
X155486557Y-90761773D01*
X155464613Y-90753921D01*
X155443543Y-90743956D01*
X155423552Y-90731974D01*
X155404832Y-90718090D01*
X155387562Y-90702438D01*
X155371910Y-90685168D01*
X155358026Y-90666448D01*
X155346044Y-90646457D01*
X155336079Y-90625387D01*
X155328227Y-90603443D01*
X155322563Y-90580834D01*
X155319144Y-90557779D01*
X155318000Y-90534500D01*
X155318000Y-90059500D01*
X155319144Y-90036221D01*
X155322563Y-90013166D01*
X155328227Y-89990557D01*
X155336079Y-89968613D01*
X155346044Y-89947543D01*
X155358026Y-89927552D01*
X155371910Y-89908832D01*
X155387562Y-89891562D01*
X155404832Y-89875910D01*
X155423552Y-89862026D01*
X155443543Y-89850044D01*
X155464613Y-89840079D01*
X155486557Y-89832227D01*
X155509166Y-89826563D01*
X155532221Y-89823144D01*
X155555500Y-89822000D01*
X156130500Y-89822000D01*
X156153779Y-89823144D01*
X156153779Y-89823144D01*
G37*
D12*
G04 #@! TD*
G04 #@! TO.P,R3,1*
G04 #@! TO.N,Net-(J3-Pad1)*
X155843000Y-90297000D03*
D11*
G04 #@! TO.N,Net-(R3-Pad2)*
G04 #@! TO.C,R3*
G36*
X157903779Y-89823144D02*
X157926834Y-89826563D01*
X157949443Y-89832227D01*
X157971387Y-89840079D01*
X157992457Y-89850044D01*
X158012448Y-89862026D01*
X158031168Y-89875910D01*
X158048438Y-89891562D01*
X158064090Y-89908832D01*
X158077974Y-89927552D01*
X158089956Y-89947543D01*
X158099921Y-89968613D01*
X158107773Y-89990557D01*
X158113437Y-90013166D01*
X158116856Y-90036221D01*
X158118000Y-90059500D01*
X158118000Y-90534500D01*
X158116856Y-90557779D01*
X158113437Y-90580834D01*
X158107773Y-90603443D01*
X158099921Y-90625387D01*
X158089956Y-90646457D01*
X158077974Y-90666448D01*
X158064090Y-90685168D01*
X158048438Y-90702438D01*
X158031168Y-90718090D01*
X158012448Y-90731974D01*
X157992457Y-90743956D01*
X157971387Y-90753921D01*
X157949443Y-90761773D01*
X157926834Y-90767437D01*
X157903779Y-90770856D01*
X157880500Y-90772000D01*
X157305500Y-90772000D01*
X157282221Y-90770856D01*
X157259166Y-90767437D01*
X157236557Y-90761773D01*
X157214613Y-90753921D01*
X157193543Y-90743956D01*
X157173552Y-90731974D01*
X157154832Y-90718090D01*
X157137562Y-90702438D01*
X157121910Y-90685168D01*
X157108026Y-90666448D01*
X157096044Y-90646457D01*
X157086079Y-90625387D01*
X157078227Y-90603443D01*
X157072563Y-90580834D01*
X157069144Y-90557779D01*
X157068000Y-90534500D01*
X157068000Y-90059500D01*
X157069144Y-90036221D01*
X157072563Y-90013166D01*
X157078227Y-89990557D01*
X157086079Y-89968613D01*
X157096044Y-89947543D01*
X157108026Y-89927552D01*
X157121910Y-89908832D01*
X157137562Y-89891562D01*
X157154832Y-89875910D01*
X157173552Y-89862026D01*
X157193543Y-89850044D01*
X157214613Y-89840079D01*
X157236557Y-89832227D01*
X157259166Y-89826563D01*
X157282221Y-89823144D01*
X157305500Y-89822000D01*
X157880500Y-89822000D01*
X157903779Y-89823144D01*
X157903779Y-89823144D01*
G37*
D12*
G04 #@! TD*
G04 #@! TO.P,R3,2*
G04 #@! TO.N,Net-(R3-Pad2)*
X157593000Y-90297000D03*
D11*
G04 #@! TO.N,Net-(J12-Pad1)*
G04 #@! TO.C,R4*
G36*
X156120369Y-83813542D02*
X156143424Y-83816961D01*
X156166033Y-83822625D01*
X156187977Y-83830477D01*
X156209047Y-83840442D01*
X156229038Y-83852424D01*
X156247758Y-83866308D01*
X156265028Y-83881960D01*
X156280680Y-83899230D01*
X156294564Y-83917950D01*
X156306546Y-83937941D01*
X156316511Y-83959011D01*
X156324363Y-83980955D01*
X156330027Y-84003564D01*
X156333446Y-84026619D01*
X156334590Y-84049898D01*
X156334590Y-84524898D01*
X156333446Y-84548177D01*
X156330027Y-84571232D01*
X156324363Y-84593841D01*
X156316511Y-84615785D01*
X156306546Y-84636855D01*
X156294564Y-84656846D01*
X156280680Y-84675566D01*
X156265028Y-84692836D01*
X156247758Y-84708488D01*
X156229038Y-84722372D01*
X156209047Y-84734354D01*
X156187977Y-84744319D01*
X156166033Y-84752171D01*
X156143424Y-84757835D01*
X156120369Y-84761254D01*
X156097090Y-84762398D01*
X155522090Y-84762398D01*
X155498811Y-84761254D01*
X155475756Y-84757835D01*
X155453147Y-84752171D01*
X155431203Y-84744319D01*
X155410133Y-84734354D01*
X155390142Y-84722372D01*
X155371422Y-84708488D01*
X155354152Y-84692836D01*
X155338500Y-84675566D01*
X155324616Y-84656846D01*
X155312634Y-84636855D01*
X155302669Y-84615785D01*
X155294817Y-84593841D01*
X155289153Y-84571232D01*
X155285734Y-84548177D01*
X155284590Y-84524898D01*
X155284590Y-84049898D01*
X155285734Y-84026619D01*
X155289153Y-84003564D01*
X155294817Y-83980955D01*
X155302669Y-83959011D01*
X155312634Y-83937941D01*
X155324616Y-83917950D01*
X155338500Y-83899230D01*
X155354152Y-83881960D01*
X155371422Y-83866308D01*
X155390142Y-83852424D01*
X155410133Y-83840442D01*
X155431203Y-83830477D01*
X155453147Y-83822625D01*
X155475756Y-83816961D01*
X155498811Y-83813542D01*
X155522090Y-83812398D01*
X156097090Y-83812398D01*
X156120369Y-83813542D01*
X156120369Y-83813542D01*
G37*
D12*
G04 #@! TD*
G04 #@! TO.P,R4,2*
G04 #@! TO.N,Net-(J12-Pad1)*
X155809590Y-84287398D03*
D11*
G04 #@! TO.N,Net-(R4-Pad1)*
G04 #@! TO.C,R4*
G36*
X157870369Y-83813542D02*
X157893424Y-83816961D01*
X157916033Y-83822625D01*
X157937977Y-83830477D01*
X157959047Y-83840442D01*
X157979038Y-83852424D01*
X157997758Y-83866308D01*
X158015028Y-83881960D01*
X158030680Y-83899230D01*
X158044564Y-83917950D01*
X158056546Y-83937941D01*
X158066511Y-83959011D01*
X158074363Y-83980955D01*
X158080027Y-84003564D01*
X158083446Y-84026619D01*
X158084590Y-84049898D01*
X158084590Y-84524898D01*
X158083446Y-84548177D01*
X158080027Y-84571232D01*
X158074363Y-84593841D01*
X158066511Y-84615785D01*
X158056546Y-84636855D01*
X158044564Y-84656846D01*
X158030680Y-84675566D01*
X158015028Y-84692836D01*
X157997758Y-84708488D01*
X157979038Y-84722372D01*
X157959047Y-84734354D01*
X157937977Y-84744319D01*
X157916033Y-84752171D01*
X157893424Y-84757835D01*
X157870369Y-84761254D01*
X157847090Y-84762398D01*
X157272090Y-84762398D01*
X157248811Y-84761254D01*
X157225756Y-84757835D01*
X157203147Y-84752171D01*
X157181203Y-84744319D01*
X157160133Y-84734354D01*
X157140142Y-84722372D01*
X157121422Y-84708488D01*
X157104152Y-84692836D01*
X157088500Y-84675566D01*
X157074616Y-84656846D01*
X157062634Y-84636855D01*
X157052669Y-84615785D01*
X157044817Y-84593841D01*
X157039153Y-84571232D01*
X157035734Y-84548177D01*
X157034590Y-84524898D01*
X157034590Y-84049898D01*
X157035734Y-84026619D01*
X157039153Y-84003564D01*
X157044817Y-83980955D01*
X157052669Y-83959011D01*
X157062634Y-83937941D01*
X157074616Y-83917950D01*
X157088500Y-83899230D01*
X157104152Y-83881960D01*
X157121422Y-83866308D01*
X157140142Y-83852424D01*
X157160133Y-83840442D01*
X157181203Y-83830477D01*
X157203147Y-83822625D01*
X157225756Y-83816961D01*
X157248811Y-83813542D01*
X157272090Y-83812398D01*
X157847090Y-83812398D01*
X157870369Y-83813542D01*
X157870369Y-83813542D01*
G37*
D12*
G04 #@! TD*
G04 #@! TO.P,R4,1*
G04 #@! TO.N,Net-(R4-Pad1)*
X157559590Y-84287398D03*
D11*
G04 #@! TO.N,GND*
G04 #@! TO.C,R5*
G36*
X156153779Y-72424144D02*
X156176834Y-72427563D01*
X156199443Y-72433227D01*
X156221387Y-72441079D01*
X156242457Y-72451044D01*
X156262448Y-72463026D01*
X156281168Y-72476910D01*
X156298438Y-72492562D01*
X156314090Y-72509832D01*
X156327974Y-72528552D01*
X156339956Y-72548543D01*
X156349921Y-72569613D01*
X156357773Y-72591557D01*
X156363437Y-72614166D01*
X156366856Y-72637221D01*
X156368000Y-72660500D01*
X156368000Y-73135500D01*
X156366856Y-73158779D01*
X156363437Y-73181834D01*
X156357773Y-73204443D01*
X156349921Y-73226387D01*
X156339956Y-73247457D01*
X156327974Y-73267448D01*
X156314090Y-73286168D01*
X156298438Y-73303438D01*
X156281168Y-73319090D01*
X156262448Y-73332974D01*
X156242457Y-73344956D01*
X156221387Y-73354921D01*
X156199443Y-73362773D01*
X156176834Y-73368437D01*
X156153779Y-73371856D01*
X156130500Y-73373000D01*
X155555500Y-73373000D01*
X155532221Y-73371856D01*
X155509166Y-73368437D01*
X155486557Y-73362773D01*
X155464613Y-73354921D01*
X155443543Y-73344956D01*
X155423552Y-73332974D01*
X155404832Y-73319090D01*
X155387562Y-73303438D01*
X155371910Y-73286168D01*
X155358026Y-73267448D01*
X155346044Y-73247457D01*
X155336079Y-73226387D01*
X155328227Y-73204443D01*
X155322563Y-73181834D01*
X155319144Y-73158779D01*
X155318000Y-73135500D01*
X155318000Y-72660500D01*
X155319144Y-72637221D01*
X155322563Y-72614166D01*
X155328227Y-72591557D01*
X155336079Y-72569613D01*
X155346044Y-72548543D01*
X155358026Y-72528552D01*
X155371910Y-72509832D01*
X155387562Y-72492562D01*
X155404832Y-72476910D01*
X155423552Y-72463026D01*
X155443543Y-72451044D01*
X155464613Y-72441079D01*
X155486557Y-72433227D01*
X155509166Y-72427563D01*
X155532221Y-72424144D01*
X155555500Y-72423000D01*
X156130500Y-72423000D01*
X156153779Y-72424144D01*
X156153779Y-72424144D01*
G37*
D12*
G04 #@! TD*
G04 #@! TO.P,R5,2*
G04 #@! TO.N,GND*
X155843000Y-72898000D03*
D11*
G04 #@! TO.N,Net-(C1-Pad1)*
G04 #@! TO.C,R5*
G36*
X157903779Y-72424144D02*
X157926834Y-72427563D01*
X157949443Y-72433227D01*
X157971387Y-72441079D01*
X157992457Y-72451044D01*
X158012448Y-72463026D01*
X158031168Y-72476910D01*
X158048438Y-72492562D01*
X158064090Y-72509832D01*
X158077974Y-72528552D01*
X158089956Y-72548543D01*
X158099921Y-72569613D01*
X158107773Y-72591557D01*
X158113437Y-72614166D01*
X158116856Y-72637221D01*
X158118000Y-72660500D01*
X158118000Y-73135500D01*
X158116856Y-73158779D01*
X158113437Y-73181834D01*
X158107773Y-73204443D01*
X158099921Y-73226387D01*
X158089956Y-73247457D01*
X158077974Y-73267448D01*
X158064090Y-73286168D01*
X158048438Y-73303438D01*
X158031168Y-73319090D01*
X158012448Y-73332974D01*
X157992457Y-73344956D01*
X157971387Y-73354921D01*
X157949443Y-73362773D01*
X157926834Y-73368437D01*
X157903779Y-73371856D01*
X157880500Y-73373000D01*
X157305500Y-73373000D01*
X157282221Y-73371856D01*
X157259166Y-73368437D01*
X157236557Y-73362773D01*
X157214613Y-73354921D01*
X157193543Y-73344956D01*
X157173552Y-73332974D01*
X157154832Y-73319090D01*
X157137562Y-73303438D01*
X157121910Y-73286168D01*
X157108026Y-73267448D01*
X157096044Y-73247457D01*
X157086079Y-73226387D01*
X157078227Y-73204443D01*
X157072563Y-73181834D01*
X157069144Y-73158779D01*
X157068000Y-73135500D01*
X157068000Y-72660500D01*
X157069144Y-72637221D01*
X157072563Y-72614166D01*
X157078227Y-72591557D01*
X157086079Y-72569613D01*
X157096044Y-72548543D01*
X157108026Y-72528552D01*
X157121910Y-72509832D01*
X157137562Y-72492562D01*
X157154832Y-72476910D01*
X157173552Y-72463026D01*
X157193543Y-72451044D01*
X157214613Y-72441079D01*
X157236557Y-72433227D01*
X157259166Y-72427563D01*
X157282221Y-72424144D01*
X157305500Y-72423000D01*
X157880500Y-72423000D01*
X157903779Y-72424144D01*
X157903779Y-72424144D01*
G37*
D12*
G04 #@! TD*
G04 #@! TO.P,R5,1*
G04 #@! TO.N,Net-(C1-Pad1)*
X157593000Y-72898000D03*
D11*
G04 #@! TO.N,Net-(Q1-Pad1)*
G04 #@! TO.C,R6*
G36*
X143362279Y-77377144D02*
X143385334Y-77380563D01*
X143407943Y-77386227D01*
X143429887Y-77394079D01*
X143450957Y-77404044D01*
X143470948Y-77416026D01*
X143489668Y-77429910D01*
X143506938Y-77445562D01*
X143522590Y-77462832D01*
X143536474Y-77481552D01*
X143548456Y-77501543D01*
X143558421Y-77522613D01*
X143566273Y-77544557D01*
X143571937Y-77567166D01*
X143575356Y-77590221D01*
X143576500Y-77613500D01*
X143576500Y-78088500D01*
X143575356Y-78111779D01*
X143571937Y-78134834D01*
X143566273Y-78157443D01*
X143558421Y-78179387D01*
X143548456Y-78200457D01*
X143536474Y-78220448D01*
X143522590Y-78239168D01*
X143506938Y-78256438D01*
X143489668Y-78272090D01*
X143470948Y-78285974D01*
X143450957Y-78297956D01*
X143429887Y-78307921D01*
X143407943Y-78315773D01*
X143385334Y-78321437D01*
X143362279Y-78324856D01*
X143339000Y-78326000D01*
X142764000Y-78326000D01*
X142740721Y-78324856D01*
X142717666Y-78321437D01*
X142695057Y-78315773D01*
X142673113Y-78307921D01*
X142652043Y-78297956D01*
X142632052Y-78285974D01*
X142613332Y-78272090D01*
X142596062Y-78256438D01*
X142580410Y-78239168D01*
X142566526Y-78220448D01*
X142554544Y-78200457D01*
X142544579Y-78179387D01*
X142536727Y-78157443D01*
X142531063Y-78134834D01*
X142527644Y-78111779D01*
X142526500Y-78088500D01*
X142526500Y-77613500D01*
X142527644Y-77590221D01*
X142531063Y-77567166D01*
X142536727Y-77544557D01*
X142544579Y-77522613D01*
X142554544Y-77501543D01*
X142566526Y-77481552D01*
X142580410Y-77462832D01*
X142596062Y-77445562D01*
X142613332Y-77429910D01*
X142632052Y-77416026D01*
X142652043Y-77404044D01*
X142673113Y-77394079D01*
X142695057Y-77386227D01*
X142717666Y-77380563D01*
X142740721Y-77377144D01*
X142764000Y-77376000D01*
X143339000Y-77376000D01*
X143362279Y-77377144D01*
X143362279Y-77377144D01*
G37*
D12*
G04 #@! TD*
G04 #@! TO.P,R6,1*
G04 #@! TO.N,Net-(Q1-Pad1)*
X143051500Y-77851000D03*
D11*
G04 #@! TO.N,Net-(R6-Pad2)*
G04 #@! TO.C,R6*
G36*
X141612279Y-77377144D02*
X141635334Y-77380563D01*
X141657943Y-77386227D01*
X141679887Y-77394079D01*
X141700957Y-77404044D01*
X141720948Y-77416026D01*
X141739668Y-77429910D01*
X141756938Y-77445562D01*
X141772590Y-77462832D01*
X141786474Y-77481552D01*
X141798456Y-77501543D01*
X141808421Y-77522613D01*
X141816273Y-77544557D01*
X141821937Y-77567166D01*
X141825356Y-77590221D01*
X141826500Y-77613500D01*
X141826500Y-78088500D01*
X141825356Y-78111779D01*
X141821937Y-78134834D01*
X141816273Y-78157443D01*
X141808421Y-78179387D01*
X141798456Y-78200457D01*
X141786474Y-78220448D01*
X141772590Y-78239168D01*
X141756938Y-78256438D01*
X141739668Y-78272090D01*
X141720948Y-78285974D01*
X141700957Y-78297956D01*
X141679887Y-78307921D01*
X141657943Y-78315773D01*
X141635334Y-78321437D01*
X141612279Y-78324856D01*
X141589000Y-78326000D01*
X141014000Y-78326000D01*
X140990721Y-78324856D01*
X140967666Y-78321437D01*
X140945057Y-78315773D01*
X140923113Y-78307921D01*
X140902043Y-78297956D01*
X140882052Y-78285974D01*
X140863332Y-78272090D01*
X140846062Y-78256438D01*
X140830410Y-78239168D01*
X140816526Y-78220448D01*
X140804544Y-78200457D01*
X140794579Y-78179387D01*
X140786727Y-78157443D01*
X140781063Y-78134834D01*
X140777644Y-78111779D01*
X140776500Y-78088500D01*
X140776500Y-77613500D01*
X140777644Y-77590221D01*
X140781063Y-77567166D01*
X140786727Y-77544557D01*
X140794579Y-77522613D01*
X140804544Y-77501543D01*
X140816526Y-77481552D01*
X140830410Y-77462832D01*
X140846062Y-77445562D01*
X140863332Y-77429910D01*
X140882052Y-77416026D01*
X140902043Y-77404044D01*
X140923113Y-77394079D01*
X140945057Y-77386227D01*
X140967666Y-77380563D01*
X140990721Y-77377144D01*
X141014000Y-77376000D01*
X141589000Y-77376000D01*
X141612279Y-77377144D01*
X141612279Y-77377144D01*
G37*
D12*
G04 #@! TD*
G04 #@! TO.P,R6,2*
G04 #@! TO.N,Net-(R6-Pad2)*
X141301500Y-77851000D03*
D13*
G04 #@! TO.P,U1,16*
G04 #@! TO.N,+3V3*
X160020000Y-90170000D03*
G04 #@! TO.P,U1,1*
G04 #@! TO.N,+5V*
X137160000Y-90170000D03*
G04 #@! TO.P,U1,15*
G04 #@! TO.N,Net-(R3-Pad2)*
X160020000Y-87630000D03*
G04 #@! TO.P,U1,2*
G04 #@! TO.N,GND*
X137160000Y-87630000D03*
G04 #@! TO.P,U1,14*
G04 #@! TO.N,Net-(J6-Pad1)*
X160020000Y-85090000D03*
G04 #@! TO.P,U1,3*
G04 #@! TO.N,Net-(J7-Pad1)*
X137160000Y-85090000D03*
G04 #@! TO.P,U1,13*
G04 #@! TO.N,Net-(R4-Pad1)*
X160020000Y-82550000D03*
G04 #@! TO.P,U1,4*
G04 #@! TO.N,Net-(J9-Pad1)*
X137160000Y-82550000D03*
G04 #@! TO.P,U1,12*
G04 #@! TO.N,Net-(J13-Pad1)*
X160020000Y-80010000D03*
G04 #@! TO.P,U1,5*
G04 #@! TO.N,N/C*
X137160000Y-80010000D03*
G04 #@! TO.P,U1,11*
X160020000Y-77470000D03*
G04 #@! TO.P,U1,6*
G04 #@! TO.N,Net-(R6-Pad2)*
X137160000Y-77470000D03*
G04 #@! TO.P,U1,10*
G04 #@! TO.N,Net-(C1-Pad1)*
X160020000Y-74930000D03*
G04 #@! TO.P,U1,7*
G04 #@! TO.N,Net-(J20-Pad1)*
X137160000Y-74930000D03*
G04 #@! TO.P,U1,9*
G04 #@! TO.N,N/C*
X160020000Y-72390000D03*
G04 #@! TO.P,U1,8*
G04 #@! TO.N,Net-(J21-Pad1)*
X137160000Y-72390000D03*
G04 #@! TD*
D11*
G04 #@! TO.N,Net-(C1-Pad1)*
G04 #@! TO.C,C1*
G36*
X158029005Y-73786704D02*
X158053273Y-73790304D01*
X158077072Y-73796265D01*
X158100171Y-73804530D01*
X158122350Y-73815020D01*
X158143393Y-73827632D01*
X158163099Y-73842247D01*
X158181277Y-73858723D01*
X158197753Y-73876901D01*
X158212368Y-73896607D01*
X158224980Y-73917650D01*
X158235470Y-73939829D01*
X158243735Y-73962928D01*
X158249696Y-73986727D01*
X158253296Y-74010995D01*
X158254500Y-74035499D01*
X158254500Y-74935501D01*
X158253296Y-74960005D01*
X158249696Y-74984273D01*
X158243735Y-75008072D01*
X158235470Y-75031171D01*
X158224980Y-75053350D01*
X158212368Y-75074393D01*
X158197753Y-75094099D01*
X158181277Y-75112277D01*
X158163099Y-75128753D01*
X158143393Y-75143368D01*
X158122350Y-75155980D01*
X158100171Y-75166470D01*
X158077072Y-75174735D01*
X158053273Y-75180696D01*
X158029005Y-75184296D01*
X158004501Y-75185500D01*
X157354499Y-75185500D01*
X157329995Y-75184296D01*
X157305727Y-75180696D01*
X157281928Y-75174735D01*
X157258829Y-75166470D01*
X157236650Y-75155980D01*
X157215607Y-75143368D01*
X157195901Y-75128753D01*
X157177723Y-75112277D01*
X157161247Y-75094099D01*
X157146632Y-75074393D01*
X157134020Y-75053350D01*
X157123530Y-75031171D01*
X157115265Y-75008072D01*
X157109304Y-74984273D01*
X157105704Y-74960005D01*
X157104500Y-74935501D01*
X157104500Y-74035499D01*
X157105704Y-74010995D01*
X157109304Y-73986727D01*
X157115265Y-73962928D01*
X157123530Y-73939829D01*
X157134020Y-73917650D01*
X157146632Y-73896607D01*
X157161247Y-73876901D01*
X157177723Y-73858723D01*
X157195901Y-73842247D01*
X157215607Y-73827632D01*
X157236650Y-73815020D01*
X157258829Y-73804530D01*
X157281928Y-73796265D01*
X157305727Y-73790304D01*
X157329995Y-73786704D01*
X157354499Y-73785500D01*
X158004501Y-73785500D01*
X158029005Y-73786704D01*
X158029005Y-73786704D01*
G37*
D14*
G04 #@! TD*
G04 #@! TO.P,C1,1*
G04 #@! TO.N,Net-(C1-Pad1)*
X157679500Y-74485500D03*
D11*
G04 #@! TO.N,GND*
G04 #@! TO.C,C1*
G36*
X155979005Y-73786704D02*
X156003273Y-73790304D01*
X156027072Y-73796265D01*
X156050171Y-73804530D01*
X156072350Y-73815020D01*
X156093393Y-73827632D01*
X156113099Y-73842247D01*
X156131277Y-73858723D01*
X156147753Y-73876901D01*
X156162368Y-73896607D01*
X156174980Y-73917650D01*
X156185470Y-73939829D01*
X156193735Y-73962928D01*
X156199696Y-73986727D01*
X156203296Y-74010995D01*
X156204500Y-74035499D01*
X156204500Y-74935501D01*
X156203296Y-74960005D01*
X156199696Y-74984273D01*
X156193735Y-75008072D01*
X156185470Y-75031171D01*
X156174980Y-75053350D01*
X156162368Y-75074393D01*
X156147753Y-75094099D01*
X156131277Y-75112277D01*
X156113099Y-75128753D01*
X156093393Y-75143368D01*
X156072350Y-75155980D01*
X156050171Y-75166470D01*
X156027072Y-75174735D01*
X156003273Y-75180696D01*
X155979005Y-75184296D01*
X155954501Y-75185500D01*
X155304499Y-75185500D01*
X155279995Y-75184296D01*
X155255727Y-75180696D01*
X155231928Y-75174735D01*
X155208829Y-75166470D01*
X155186650Y-75155980D01*
X155165607Y-75143368D01*
X155145901Y-75128753D01*
X155127723Y-75112277D01*
X155111247Y-75094099D01*
X155096632Y-75074393D01*
X155084020Y-75053350D01*
X155073530Y-75031171D01*
X155065265Y-75008072D01*
X155059304Y-74984273D01*
X155055704Y-74960005D01*
X155054500Y-74935501D01*
X155054500Y-74035499D01*
X155055704Y-74010995D01*
X155059304Y-73986727D01*
X155065265Y-73962928D01*
X155073530Y-73939829D01*
X155084020Y-73917650D01*
X155096632Y-73896607D01*
X155111247Y-73876901D01*
X155127723Y-73858723D01*
X155145901Y-73842247D01*
X155165607Y-73827632D01*
X155186650Y-73815020D01*
X155208829Y-73804530D01*
X155231928Y-73796265D01*
X155255727Y-73790304D01*
X155279995Y-73786704D01*
X155304499Y-73785500D01*
X155954501Y-73785500D01*
X155979005Y-73786704D01*
X155979005Y-73786704D01*
G37*
D14*
G04 #@! TD*
G04 #@! TO.P,C1,2*
G04 #@! TO.N,GND*
X155629500Y-74485500D03*
D15*
G04 #@! TO.P,J1,1*
G04 #@! TO.N,+5V*
X142367000Y-95758000D03*
G04 #@! TD*
G04 #@! TO.P,J2,1*
G04 #@! TO.N,GND*
X151384000Y-84899500D03*
G04 #@! TD*
G04 #@! TO.P,J3,1*
G04 #@! TO.N,Net-(J3-Pad1)*
X156718000Y-87693500D03*
G04 #@! TD*
G04 #@! TO.P,J4,1*
G04 #@! TO.N,+3V3*
X146812000Y-70866000D03*
G04 #@! TD*
G04 #@! TO.P,J5,1*
G04 #@! TO.N,+3V3*
X146812000Y-74358500D03*
G04 #@! TD*
G04 #@! TO.P,J6,1*
G04 #@! TO.N,Net-(J6-Pad1)*
X142176500Y-90424000D03*
G04 #@! TD*
G04 #@! TO.P,J7,1*
G04 #@! TO.N,Net-(J7-Pad1)*
X147066000Y-89471500D03*
G04 #@! TD*
G04 #@! TO.P,J8,1*
G04 #@! TO.N,GND*
X151384000Y-77914500D03*
G04 #@! TD*
G04 #@! TO.P,J9,1*
G04 #@! TO.N,Net-(J9-Pad1)*
X151574500Y-89471500D03*
G04 #@! TD*
G04 #@! TO.P,J10,1*
G04 #@! TO.N,GND*
X151384000Y-81407000D03*
G04 #@! TD*
G04 #@! TO.P,J11,1*
G04 #@! TO.N,+3V3*
X146812000Y-84836000D03*
G04 #@! TD*
G04 #@! TO.P,J12,1*
G04 #@! TO.N,Net-(J12-Pad1)*
X156684590Y-82001398D03*
G04 #@! TD*
G04 #@! TO.P,J13,1*
G04 #@! TO.N,Net-(J13-Pad1)*
X156718000Y-77724000D03*
G04 #@! TD*
G04 #@! TO.P,J14,1*
G04 #@! TO.N,GND*
X151384000Y-74422000D03*
G04 #@! TD*
G04 #@! TO.P,J15,1*
G04 #@! TO.N,+3V3*
X146812000Y-81343500D03*
G04 #@! TD*
G04 #@! TO.P,J16,1*
G04 #@! TO.N,Net-(C1-Pad1)*
X156718000Y-70421500D03*
G04 #@! TD*
G04 #@! TO.P,J17,1*
G04 #@! TO.N,+5V*
X138049000Y-95758000D03*
G04 #@! TD*
G04 #@! TO.P,J18,1*
G04 #@! TO.N,Net-(J18-Pad1)*
X142176500Y-85598000D03*
G04 #@! TD*
G04 #@! TO.P,J19,1*
G04 #@! TO.N,+3V3*
X146812000Y-77851000D03*
G04 #@! TD*
G04 #@! TO.P,J20,1*
G04 #@! TO.N,Net-(J20-Pad1)*
X142176500Y-74422000D03*
G04 #@! TD*
G04 #@! TO.P,J21,1*
G04 #@! TO.N,Net-(J21-Pad1)*
X142176500Y-70739000D03*
G04 #@! TD*
G04 #@! TO.P,J22,1*
G04 #@! TO.N,GND*
X151384000Y-70929500D03*
G04 #@! TD*
D16*
G04 #@! TO.N,+3V3*
X153162000Y-91757500D03*
X149161500Y-90614500D03*
X146812000Y-84836000D03*
X146812000Y-84836000D03*
X146812000Y-84836000D03*
X146812000Y-84836000D03*
X146812000Y-84836000D03*
X146812000Y-84836000D03*
X146812000Y-84836000D03*
X146812000Y-85344000D03*
X146812000Y-84836000D03*
X146812000Y-84836000D03*
X147256500Y-85090000D03*
X146812000Y-84836000D03*
X146812000Y-84836000D03*
X146367500Y-85090000D03*
G04 #@! TO.N,GND*
X150812500Y-79184500D03*
X139954000Y-79756000D03*
X151384000Y-79184500D03*
X151955500Y-79184500D03*
X151384000Y-76835000D03*
X150812500Y-76835000D03*
X151955500Y-76835000D03*
G04 #@! TO.N,Net-(J6-Pad1)*
X142176500Y-90424000D03*
G04 #@! TD*
D17*
G04 #@! TO.N,+3V3*
X146812000Y-70866000D02*
X146812000Y-70866000D01*
X146812000Y-74358500D02*
X146812000Y-74358500D01*
X146812000Y-77851000D02*
X146812000Y-77851000D01*
X146812000Y-81343500D02*
X146812000Y-81343500D01*
D18*
X149084000Y-90614500D02*
X147941000Y-91757500D01*
X149161500Y-90614500D02*
X149084000Y-90614500D01*
D17*
X146812000Y-84836000D02*
X146304000Y-85026500D01*
X146812000Y-70866000D02*
X146812000Y-74358500D01*
X146812000Y-74358500D02*
X146812000Y-77851000D01*
X146812000Y-77851000D02*
X146812000Y-81343500D01*
X146812000Y-84836000D02*
X146812000Y-84836000D01*
X146812000Y-84836000D02*
X146812000Y-84836000D01*
X146812000Y-84836000D02*
X146812000Y-84836000D01*
X146812000Y-84836000D02*
X146812000Y-84836000D01*
X146812000Y-84264500D02*
X146812000Y-84836000D01*
X146812000Y-84836000D02*
X146812000Y-84264500D01*
X146812000Y-84836000D02*
X146812000Y-84836000D01*
X146812000Y-81343500D02*
X146812000Y-84264500D01*
X146812000Y-84264500D02*
X146812000Y-84391500D01*
X146812000Y-84836000D02*
X146812000Y-84391500D01*
X146812000Y-84836000D02*
X146812000Y-84836000D01*
X146812000Y-84836000D02*
X146812000Y-84836000D01*
X147320000Y-85090000D02*
X146812000Y-84836000D01*
X146812000Y-84836000D02*
X147320000Y-85090000D01*
X146812000Y-84836000D02*
X146812000Y-84836000D01*
X146304000Y-85026500D02*
X146812000Y-84836000D01*
D18*
X153162000Y-91757500D02*
X152449500Y-91757500D01*
D17*
G04 #@! TO.N,GND*
X151384000Y-70929500D02*
X151384000Y-74422000D01*
X151384000Y-74422000D02*
X151384000Y-76136500D01*
X151384000Y-81407000D02*
X151384000Y-84899500D01*
X151384000Y-77851000D02*
X151384000Y-77914500D01*
X151384000Y-77343000D02*
X151384000Y-77851000D01*
X151384000Y-77914500D02*
X151384000Y-77998236D01*
X151384000Y-81407000D02*
X151384000Y-77914500D01*
D18*
X155843000Y-74272000D02*
X155629500Y-74485500D01*
X155843000Y-72898000D02*
X155843000Y-74272000D01*
X151447500Y-74485500D02*
X151384000Y-74422000D01*
X155629500Y-74485500D02*
X151447500Y-74485500D01*
D19*
X141226500Y-79780000D02*
X139978000Y-79780000D01*
X139978000Y-79780000D02*
X139954000Y-79756000D01*
D17*
X151384000Y-76898500D02*
X151384000Y-77343000D01*
X151384000Y-76898500D02*
X151384000Y-76898500D01*
X151384000Y-76136500D02*
X151384000Y-76898500D01*
X151384000Y-76136500D02*
X151384000Y-76136500D01*
D20*
G04 #@! TO.N,+5V*
X137160000Y-94869000D02*
X138049000Y-95758000D01*
X137160000Y-90170000D02*
X137160000Y-94869000D01*
X138049000Y-95758000D02*
X142367000Y-95758000D01*
D18*
G04 #@! TO.N,Net-(J18-Pad1)*
X142176500Y-85598000D02*
X142176500Y-82780000D01*
G04 #@! TO.N,Net-(J3-Pad1)*
X155843000Y-88568500D02*
X156718000Y-87693500D01*
X155843000Y-90297000D02*
X155843000Y-88568500D01*
G04 #@! TO.N,Net-(J7-Pad1)*
X146191000Y-90346500D02*
X147066000Y-89471500D01*
X146191000Y-91757500D02*
X146191000Y-90346500D01*
D19*
X140468012Y-88398012D02*
X143871192Y-88398012D01*
X144944680Y-89471500D02*
X147066000Y-89471500D01*
X143871192Y-88398012D02*
X144944680Y-89471500D01*
X137160000Y-85090000D02*
X140468012Y-88398012D01*
D18*
G04 #@! TO.N,Net-(J9-Pad1)*
X150699500Y-90346500D02*
X151574500Y-89471500D01*
X150699500Y-91757500D02*
X150699500Y-90346500D01*
D19*
X141216499Y-87598001D02*
X145979497Y-87598001D01*
X145979497Y-87598001D02*
X146264998Y-87312500D01*
X138560001Y-84941503D02*
X141216499Y-87598001D01*
X137160000Y-82550000D02*
X138560001Y-83950001D01*
X138560001Y-83950001D02*
X138560001Y-84941503D01*
X149415500Y-87312500D02*
X151574500Y-89471500D01*
X146264998Y-87312500D02*
X149415500Y-87312500D01*
D18*
G04 #@! TO.N,Net-(J12-Pad1)*
X155809590Y-82876398D02*
X156684590Y-82001398D01*
X155809590Y-84287398D02*
X155809590Y-82876398D01*
G04 #@! TO.N,Net-(J13-Pad1)*
X159004000Y-80010000D02*
X156718000Y-77724000D01*
X160020000Y-80010000D02*
X159004000Y-80010000D01*
D20*
G04 #@! TO.N,Net-(J20-Pad1)*
X137668000Y-74422000D02*
X137160000Y-74930000D01*
X142176500Y-74422000D02*
X137668000Y-74422000D01*
G04 #@! TO.N,Net-(J21-Pad1)*
X138811000Y-70739000D02*
X137160000Y-72390000D01*
X142176500Y-70739000D02*
X138811000Y-70739000D01*
D18*
G04 #@! TO.N,Net-(R3-Pad2)*
X160020000Y-87870000D02*
X157593000Y-90297000D01*
X160020000Y-87630000D02*
X160020000Y-87870000D01*
G04 #@! TO.N,Net-(R4-Pad1)*
X159296988Y-82550000D02*
X157559590Y-84287398D01*
X160020000Y-82550000D02*
X159296988Y-82550000D01*
G04 #@! TO.N,Net-(R6-Pad2)*
X137541000Y-77851000D02*
X137160000Y-77470000D01*
X141301500Y-77851000D02*
X137541000Y-77851000D01*
G04 #@! TO.N,Net-(Q1-Pad1)*
X143051500Y-79705000D02*
X143126500Y-79780000D01*
X143051500Y-77851000D02*
X143051500Y-79705000D01*
G04 #@! TO.N,Net-(C1-Pad1)*
X158124000Y-74930000D02*
X157679500Y-74485500D01*
X160020000Y-74930000D02*
X158124000Y-74930000D01*
X157679500Y-72984500D02*
X157593000Y-72898000D01*
X157679500Y-74485500D02*
X157679500Y-72984500D01*
X157593000Y-71296500D02*
X156718000Y-70421500D01*
X157593000Y-72898000D02*
X157593000Y-71296500D01*
G04 #@! TD*
D21*
G04 #@! TO.N,GND*
G36*
X137353748Y-87615858D02*
X137339605Y-87630000D01*
X138240159Y-88530554D01*
X138496643Y-88444148D01*
X138682864Y-87935154D01*
X139741752Y-88994042D01*
X139793915Y-89072109D01*
X140103193Y-89278762D01*
X140321942Y-89322274D01*
X140041500Y-89999322D01*
X140041500Y-90848678D01*
X140366534Y-91633380D01*
X140967120Y-92233966D01*
X141751822Y-92559000D01*
X142601178Y-92559000D01*
X143385880Y-92233966D01*
X143986466Y-91633380D01*
X144311500Y-90848678D01*
X144311500Y-90172937D01*
X144579861Y-90352250D01*
X144852594Y-90406500D01*
X144852597Y-90406500D01*
X144944679Y-90424816D01*
X145036761Y-90406500D01*
X145142382Y-90406500D01*
X145152534Y-90431008D01*
X145156001Y-90448439D01*
X145156000Y-91076468D01*
X145085922Y-91181348D01*
X145018560Y-91520000D01*
X145018560Y-91821800D01*
X144593462Y-91821800D01*
X144526000Y-91808381D01*
X144458539Y-91821800D01*
X144458538Y-91821800D01*
X144258727Y-91861545D01*
X144032143Y-92012943D01*
X143880745Y-92239527D01*
X143827581Y-92506800D01*
X143841001Y-92574267D01*
X143841001Y-94212655D01*
X143576380Y-93948034D01*
X142791678Y-93623000D01*
X141942322Y-93623000D01*
X141157620Y-93948034D01*
X140732654Y-94373000D01*
X139683346Y-94373000D01*
X139258380Y-93948034D01*
X138545000Y-93652543D01*
X138545000Y-90837462D01*
X138695000Y-90475330D01*
X138695000Y-89864670D01*
X138461310Y-89300493D01*
X138029507Y-88868690D01*
X138009885Y-88860562D01*
X138060554Y-88710159D01*
X137160000Y-87809605D01*
X137145858Y-87823748D01*
X136966253Y-87644143D01*
X136980395Y-87630000D01*
X136966253Y-87615858D01*
X137145858Y-87436253D01*
X137160000Y-87450395D01*
X137174143Y-87436253D01*
X137353748Y-87615858D01*
X137353748Y-87615858D01*
G37*
X137353748Y-87615858D02*
X137339605Y-87630000D01*
X138240159Y-88530554D01*
X138496643Y-88444148D01*
X138682864Y-87935154D01*
X139741752Y-88994042D01*
X139793915Y-89072109D01*
X140103193Y-89278762D01*
X140321942Y-89322274D01*
X140041500Y-89999322D01*
X140041500Y-90848678D01*
X140366534Y-91633380D01*
X140967120Y-92233966D01*
X141751822Y-92559000D01*
X142601178Y-92559000D01*
X143385880Y-92233966D01*
X143986466Y-91633380D01*
X144311500Y-90848678D01*
X144311500Y-90172937D01*
X144579861Y-90352250D01*
X144852594Y-90406500D01*
X144852597Y-90406500D01*
X144944679Y-90424816D01*
X145036761Y-90406500D01*
X145142382Y-90406500D01*
X145152534Y-90431008D01*
X145156001Y-90448439D01*
X145156000Y-91076468D01*
X145085922Y-91181348D01*
X145018560Y-91520000D01*
X145018560Y-91821800D01*
X144593462Y-91821800D01*
X144526000Y-91808381D01*
X144458539Y-91821800D01*
X144458538Y-91821800D01*
X144258727Y-91861545D01*
X144032143Y-92012943D01*
X143880745Y-92239527D01*
X143827581Y-92506800D01*
X143841001Y-92574267D01*
X143841001Y-94212655D01*
X143576380Y-93948034D01*
X142791678Y-93623000D01*
X141942322Y-93623000D01*
X141157620Y-93948034D01*
X140732654Y-94373000D01*
X139683346Y-94373000D01*
X139258380Y-93948034D01*
X138545000Y-93652543D01*
X138545000Y-90837462D01*
X138695000Y-90475330D01*
X138695000Y-89864670D01*
X138461310Y-89300493D01*
X138029507Y-88868690D01*
X138009885Y-88860562D01*
X138060554Y-88710159D01*
X137160000Y-87809605D01*
X137145858Y-87823748D01*
X136966253Y-87644143D01*
X136980395Y-87630000D01*
X136966253Y-87615858D01*
X137145858Y-87436253D01*
X137160000Y-87450395D01*
X137174143Y-87436253D01*
X137353748Y-87615858D01*
G36*
X154908034Y-71630880D02*
X155102216Y-71825062D01*
X154958302Y-71884673D01*
X154779673Y-72063301D01*
X154683000Y-72296690D01*
X154683000Y-72612250D01*
X154841750Y-72771000D01*
X155716000Y-72771000D01*
X155716000Y-72751000D01*
X155970000Y-72751000D01*
X155970000Y-72771000D01*
X155990000Y-72771000D01*
X155990000Y-73025000D01*
X155970000Y-73025000D01*
X155970000Y-73045000D01*
X155716000Y-73045000D01*
X155716000Y-73025000D01*
X154841750Y-73025000D01*
X154683000Y-73183750D01*
X154683000Y-73258975D01*
X154516173Y-73425801D01*
X154419500Y-73659190D01*
X154419500Y-74199750D01*
X154578250Y-74358500D01*
X155502500Y-74358500D01*
X155502500Y-74338500D01*
X155756500Y-74338500D01*
X155756500Y-74358500D01*
X155776500Y-74358500D01*
X155776500Y-74612500D01*
X155756500Y-74612500D01*
X155756500Y-75661750D01*
X155862289Y-75767539D01*
X155508620Y-75914034D01*
X154908034Y-76514620D01*
X154583000Y-77299322D01*
X154583000Y-78148678D01*
X154908034Y-78933380D01*
X155508620Y-79533966D01*
X156293322Y-79859000D01*
X157142678Y-79859000D01*
X157317059Y-79786769D01*
X157599923Y-80069634D01*
X157109268Y-79866398D01*
X156259912Y-79866398D01*
X155475210Y-80191432D01*
X154874624Y-80792018D01*
X154549590Y-81576720D01*
X154549590Y-82426076D01*
X154771124Y-82960906D01*
X154774591Y-82978337D01*
X154774590Y-83606366D01*
X154704512Y-83711246D01*
X154637150Y-84049898D01*
X154637150Y-84524898D01*
X154704512Y-84863550D01*
X154896343Y-85150645D01*
X155183438Y-85342476D01*
X155522090Y-85409838D01*
X156097090Y-85409838D01*
X156435742Y-85342476D01*
X156684590Y-85176201D01*
X156933438Y-85342476D01*
X157272090Y-85409838D01*
X157847090Y-85409838D01*
X158185742Y-85342476D01*
X158472837Y-85150645D01*
X158485000Y-85132442D01*
X158485000Y-85395330D01*
X158718690Y-85959507D01*
X159119183Y-86360000D01*
X158718690Y-86760493D01*
X158680567Y-86852531D01*
X158527966Y-86484120D01*
X157927380Y-85883534D01*
X157142678Y-85558500D01*
X156293322Y-85558500D01*
X155508620Y-85883534D01*
X154908034Y-86484120D01*
X154583000Y-87268822D01*
X154583000Y-88118178D01*
X154804534Y-88653008D01*
X154808001Y-88670439D01*
X154808000Y-89615968D01*
X154737922Y-89720848D01*
X154670560Y-90059500D01*
X154670560Y-90534500D01*
X154737922Y-90873152D01*
X154929753Y-91160247D01*
X155216848Y-91352078D01*
X155555500Y-91419440D01*
X156130500Y-91419440D01*
X156469152Y-91352078D01*
X156718000Y-91185803D01*
X156966848Y-91352078D01*
X157305500Y-91419440D01*
X157880500Y-91419440D01*
X158219152Y-91352078D01*
X158506247Y-91160247D01*
X158668265Y-90917770D01*
X158718690Y-91039507D01*
X159150493Y-91471310D01*
X159243653Y-91509898D01*
X158790893Y-91821800D01*
X154204486Y-91821800D01*
X154217276Y-91757500D01*
X154136948Y-91353663D01*
X153908193Y-91011307D01*
X153565837Y-90782552D01*
X153329754Y-90735592D01*
X153384466Y-90680880D01*
X153709500Y-89896178D01*
X153709500Y-89046822D01*
X153384466Y-88262120D01*
X152783880Y-87661534D01*
X151999178Y-87336500D01*
X151149822Y-87336500D01*
X150875441Y-87450152D01*
X150141761Y-86716472D01*
X150089597Y-86638403D01*
X149780319Y-86431750D01*
X149688420Y-86413470D01*
X150049635Y-86413470D01*
X150209418Y-86732239D01*
X151000187Y-87042223D01*
X151849387Y-87025997D01*
X152558582Y-86732239D01*
X152718365Y-86413470D01*
X151384000Y-85079105D01*
X150049635Y-86413470D01*
X149688420Y-86413470D01*
X149507586Y-86377500D01*
X149415500Y-86359183D01*
X149323414Y-86377500D01*
X148362883Y-86377500D01*
X148412241Y-86349364D01*
X148811037Y-85835518D01*
X148982836Y-85208174D01*
X148947000Y-84923900D01*
X148947000Y-84515687D01*
X149241277Y-84515687D01*
X149257503Y-85364887D01*
X149551261Y-86074082D01*
X149870030Y-86233865D01*
X151204395Y-84899500D01*
X151563605Y-84899500D01*
X152897970Y-86233865D01*
X153216739Y-86074082D01*
X153526723Y-85283313D01*
X153510497Y-84434113D01*
X153216739Y-83724918D01*
X152897970Y-83565135D01*
X151563605Y-84899500D01*
X151204395Y-84899500D01*
X149870030Y-83565135D01*
X149551261Y-83724918D01*
X149241277Y-84515687D01*
X148947000Y-84515687D01*
X148947000Y-84411322D01*
X148621966Y-83626620D01*
X148447000Y-83451654D01*
X148447000Y-82920970D01*
X150049635Y-82920970D01*
X150166065Y-83153250D01*
X150049635Y-83385530D01*
X151384000Y-84719895D01*
X152718365Y-83385530D01*
X152601935Y-83153250D01*
X152718365Y-82920970D01*
X151384000Y-81586605D01*
X150049635Y-82920970D01*
X148447000Y-82920970D01*
X148447000Y-82727846D01*
X148621966Y-82552880D01*
X148947000Y-81768178D01*
X148947000Y-81023187D01*
X149241277Y-81023187D01*
X149257503Y-81872387D01*
X149551261Y-82581582D01*
X149870030Y-82741365D01*
X151204395Y-81407000D01*
X151563605Y-81407000D01*
X152897970Y-82741365D01*
X153216739Y-82581582D01*
X153526723Y-81790813D01*
X153510497Y-80941613D01*
X153216739Y-80232418D01*
X152897970Y-80072635D01*
X151563605Y-81407000D01*
X151204395Y-81407000D01*
X149870030Y-80072635D01*
X149551261Y-80232418D01*
X149241277Y-81023187D01*
X148947000Y-81023187D01*
X148947000Y-80918822D01*
X148621966Y-80134120D01*
X148447000Y-79959154D01*
X148447000Y-79428470D01*
X150049635Y-79428470D01*
X150166065Y-79660750D01*
X150049635Y-79893030D01*
X151384000Y-81227395D01*
X152718365Y-79893030D01*
X152601935Y-79660750D01*
X152718365Y-79428470D01*
X151384000Y-78094105D01*
X150049635Y-79428470D01*
X148447000Y-79428470D01*
X148447000Y-79235346D01*
X148621966Y-79060380D01*
X148947000Y-78275678D01*
X148947000Y-77530687D01*
X149241277Y-77530687D01*
X149257503Y-78379887D01*
X149551261Y-79089082D01*
X149870030Y-79248865D01*
X151204395Y-77914500D01*
X151563605Y-77914500D01*
X152897970Y-79248865D01*
X153216739Y-79089082D01*
X153526723Y-78298313D01*
X153510497Y-77449113D01*
X153216739Y-76739918D01*
X152897970Y-76580135D01*
X151563605Y-77914500D01*
X151204395Y-77914500D01*
X149870030Y-76580135D01*
X149551261Y-76739918D01*
X149241277Y-77530687D01*
X148947000Y-77530687D01*
X148947000Y-77426322D01*
X148621966Y-76641620D01*
X148447000Y-76466654D01*
X148447000Y-75935970D01*
X150049635Y-75935970D01*
X150166065Y-76168250D01*
X150049635Y-76400530D01*
X151384000Y-77734895D01*
X152718365Y-76400530D01*
X152601935Y-76168250D01*
X152718365Y-75935970D01*
X151384000Y-74601605D01*
X150049635Y-75935970D01*
X148447000Y-75935970D01*
X148447000Y-75742846D01*
X148621966Y-75567880D01*
X148947000Y-74783178D01*
X148947000Y-74038187D01*
X149241277Y-74038187D01*
X149257503Y-74887387D01*
X149551261Y-75596582D01*
X149870030Y-75756365D01*
X151204395Y-74422000D01*
X151563605Y-74422000D01*
X152897970Y-75756365D01*
X153216739Y-75596582D01*
X153526723Y-74805813D01*
X153526063Y-74771250D01*
X154419500Y-74771250D01*
X154419500Y-75311810D01*
X154516173Y-75545199D01*
X154694802Y-75723827D01*
X154928191Y-75820500D01*
X155343750Y-75820500D01*
X155502500Y-75661750D01*
X155502500Y-74612500D01*
X154578250Y-74612500D01*
X154419500Y-74771250D01*
X153526063Y-74771250D01*
X153510497Y-73956613D01*
X153216739Y-73247418D01*
X152897970Y-73087635D01*
X151563605Y-74422000D01*
X151204395Y-74422000D01*
X149870030Y-73087635D01*
X149551261Y-73247418D01*
X149241277Y-74038187D01*
X148947000Y-74038187D01*
X148947000Y-73933822D01*
X148621966Y-73149120D01*
X148447000Y-72974154D01*
X148447000Y-72250346D01*
X148621966Y-72075380D01*
X148820795Y-71595365D01*
X149340011Y-71594080D01*
X149551261Y-72104082D01*
X149870030Y-72263865D01*
X150542792Y-71591103D01*
X150902894Y-71590211D01*
X150049635Y-72443470D01*
X150166065Y-72675750D01*
X150049635Y-72908030D01*
X151384000Y-74242395D01*
X152718365Y-72908030D01*
X152601935Y-72675750D01*
X152718365Y-72443470D01*
X151862730Y-71587835D01*
X152221053Y-71586948D01*
X152897970Y-72263865D01*
X153216739Y-72104082D01*
X153420621Y-71583979D01*
X154887104Y-71580349D01*
X154908034Y-71630880D01*
X154908034Y-71630880D01*
G37*
X154908034Y-71630880D02*
X155102216Y-71825062D01*
X154958302Y-71884673D01*
X154779673Y-72063301D01*
X154683000Y-72296690D01*
X154683000Y-72612250D01*
X154841750Y-72771000D01*
X155716000Y-72771000D01*
X155716000Y-72751000D01*
X155970000Y-72751000D01*
X155970000Y-72771000D01*
X155990000Y-72771000D01*
X155990000Y-73025000D01*
X155970000Y-73025000D01*
X155970000Y-73045000D01*
X155716000Y-73045000D01*
X155716000Y-73025000D01*
X154841750Y-73025000D01*
X154683000Y-73183750D01*
X154683000Y-73258975D01*
X154516173Y-73425801D01*
X154419500Y-73659190D01*
X154419500Y-74199750D01*
X154578250Y-74358500D01*
X155502500Y-74358500D01*
X155502500Y-74338500D01*
X155756500Y-74338500D01*
X155756500Y-74358500D01*
X155776500Y-74358500D01*
X155776500Y-74612500D01*
X155756500Y-74612500D01*
X155756500Y-75661750D01*
X155862289Y-75767539D01*
X155508620Y-75914034D01*
X154908034Y-76514620D01*
X154583000Y-77299322D01*
X154583000Y-78148678D01*
X154908034Y-78933380D01*
X155508620Y-79533966D01*
X156293322Y-79859000D01*
X157142678Y-79859000D01*
X157317059Y-79786769D01*
X157599923Y-80069634D01*
X157109268Y-79866398D01*
X156259912Y-79866398D01*
X155475210Y-80191432D01*
X154874624Y-80792018D01*
X154549590Y-81576720D01*
X154549590Y-82426076D01*
X154771124Y-82960906D01*
X154774591Y-82978337D01*
X154774590Y-83606366D01*
X154704512Y-83711246D01*
X154637150Y-84049898D01*
X154637150Y-84524898D01*
X154704512Y-84863550D01*
X154896343Y-85150645D01*
X155183438Y-85342476D01*
X155522090Y-85409838D01*
X156097090Y-85409838D01*
X156435742Y-85342476D01*
X156684590Y-85176201D01*
X156933438Y-85342476D01*
X157272090Y-85409838D01*
X157847090Y-85409838D01*
X158185742Y-85342476D01*
X158472837Y-85150645D01*
X158485000Y-85132442D01*
X158485000Y-85395330D01*
X158718690Y-85959507D01*
X159119183Y-86360000D01*
X158718690Y-86760493D01*
X158680567Y-86852531D01*
X158527966Y-86484120D01*
X157927380Y-85883534D01*
X157142678Y-85558500D01*
X156293322Y-85558500D01*
X155508620Y-85883534D01*
X154908034Y-86484120D01*
X154583000Y-87268822D01*
X154583000Y-88118178D01*
X154804534Y-88653008D01*
X154808001Y-88670439D01*
X154808000Y-89615968D01*
X154737922Y-89720848D01*
X154670560Y-90059500D01*
X154670560Y-90534500D01*
X154737922Y-90873152D01*
X154929753Y-91160247D01*
X155216848Y-91352078D01*
X155555500Y-91419440D01*
X156130500Y-91419440D01*
X156469152Y-91352078D01*
X156718000Y-91185803D01*
X156966848Y-91352078D01*
X157305500Y-91419440D01*
X157880500Y-91419440D01*
X158219152Y-91352078D01*
X158506247Y-91160247D01*
X158668265Y-90917770D01*
X158718690Y-91039507D01*
X159150493Y-91471310D01*
X159243653Y-91509898D01*
X158790893Y-91821800D01*
X154204486Y-91821800D01*
X154217276Y-91757500D01*
X154136948Y-91353663D01*
X153908193Y-91011307D01*
X153565837Y-90782552D01*
X153329754Y-90735592D01*
X153384466Y-90680880D01*
X153709500Y-89896178D01*
X153709500Y-89046822D01*
X153384466Y-88262120D01*
X152783880Y-87661534D01*
X151999178Y-87336500D01*
X151149822Y-87336500D01*
X150875441Y-87450152D01*
X150141761Y-86716472D01*
X150089597Y-86638403D01*
X149780319Y-86431750D01*
X149688420Y-86413470D01*
X150049635Y-86413470D01*
X150209418Y-86732239D01*
X151000187Y-87042223D01*
X151849387Y-87025997D01*
X152558582Y-86732239D01*
X152718365Y-86413470D01*
X151384000Y-85079105D01*
X150049635Y-86413470D01*
X149688420Y-86413470D01*
X149507586Y-86377500D01*
X149415500Y-86359183D01*
X149323414Y-86377500D01*
X148362883Y-86377500D01*
X148412241Y-86349364D01*
X148811037Y-85835518D01*
X148982836Y-85208174D01*
X148947000Y-84923900D01*
X148947000Y-84515687D01*
X149241277Y-84515687D01*
X149257503Y-85364887D01*
X149551261Y-86074082D01*
X149870030Y-86233865D01*
X151204395Y-84899500D01*
X151563605Y-84899500D01*
X152897970Y-86233865D01*
X153216739Y-86074082D01*
X153526723Y-85283313D01*
X153510497Y-84434113D01*
X153216739Y-83724918D01*
X152897970Y-83565135D01*
X151563605Y-84899500D01*
X151204395Y-84899500D01*
X149870030Y-83565135D01*
X149551261Y-83724918D01*
X149241277Y-84515687D01*
X148947000Y-84515687D01*
X148947000Y-84411322D01*
X148621966Y-83626620D01*
X148447000Y-83451654D01*
X148447000Y-82920970D01*
X150049635Y-82920970D01*
X150166065Y-83153250D01*
X150049635Y-83385530D01*
X151384000Y-84719895D01*
X152718365Y-83385530D01*
X152601935Y-83153250D01*
X152718365Y-82920970D01*
X151384000Y-81586605D01*
X150049635Y-82920970D01*
X148447000Y-82920970D01*
X148447000Y-82727846D01*
X148621966Y-82552880D01*
X148947000Y-81768178D01*
X148947000Y-81023187D01*
X149241277Y-81023187D01*
X149257503Y-81872387D01*
X149551261Y-82581582D01*
X149870030Y-82741365D01*
X151204395Y-81407000D01*
X151563605Y-81407000D01*
X152897970Y-82741365D01*
X153216739Y-82581582D01*
X153526723Y-81790813D01*
X153510497Y-80941613D01*
X153216739Y-80232418D01*
X152897970Y-80072635D01*
X151563605Y-81407000D01*
X151204395Y-81407000D01*
X149870030Y-80072635D01*
X149551261Y-80232418D01*
X149241277Y-81023187D01*
X148947000Y-81023187D01*
X148947000Y-80918822D01*
X148621966Y-80134120D01*
X148447000Y-79959154D01*
X148447000Y-79428470D01*
X150049635Y-79428470D01*
X150166065Y-79660750D01*
X150049635Y-79893030D01*
X151384000Y-81227395D01*
X152718365Y-79893030D01*
X152601935Y-79660750D01*
X152718365Y-79428470D01*
X151384000Y-78094105D01*
X150049635Y-79428470D01*
X148447000Y-79428470D01*
X148447000Y-79235346D01*
X148621966Y-79060380D01*
X148947000Y-78275678D01*
X148947000Y-77530687D01*
X149241277Y-77530687D01*
X149257503Y-78379887D01*
X149551261Y-79089082D01*
X149870030Y-79248865D01*
X151204395Y-77914500D01*
X151563605Y-77914500D01*
X152897970Y-79248865D01*
X153216739Y-79089082D01*
X153526723Y-78298313D01*
X153510497Y-77449113D01*
X153216739Y-76739918D01*
X152897970Y-76580135D01*
X151563605Y-77914500D01*
X151204395Y-77914500D01*
X149870030Y-76580135D01*
X149551261Y-76739918D01*
X149241277Y-77530687D01*
X148947000Y-77530687D01*
X148947000Y-77426322D01*
X148621966Y-76641620D01*
X148447000Y-76466654D01*
X148447000Y-75935970D01*
X150049635Y-75935970D01*
X150166065Y-76168250D01*
X150049635Y-76400530D01*
X151384000Y-77734895D01*
X152718365Y-76400530D01*
X152601935Y-76168250D01*
X152718365Y-75935970D01*
X151384000Y-74601605D01*
X150049635Y-75935970D01*
X148447000Y-75935970D01*
X148447000Y-75742846D01*
X148621966Y-75567880D01*
X148947000Y-74783178D01*
X148947000Y-74038187D01*
X149241277Y-74038187D01*
X149257503Y-74887387D01*
X149551261Y-75596582D01*
X149870030Y-75756365D01*
X151204395Y-74422000D01*
X151563605Y-74422000D01*
X152897970Y-75756365D01*
X153216739Y-75596582D01*
X153526723Y-74805813D01*
X153526063Y-74771250D01*
X154419500Y-74771250D01*
X154419500Y-75311810D01*
X154516173Y-75545199D01*
X154694802Y-75723827D01*
X154928191Y-75820500D01*
X155343750Y-75820500D01*
X155502500Y-75661750D01*
X155502500Y-74612500D01*
X154578250Y-74612500D01*
X154419500Y-74771250D01*
X153526063Y-74771250D01*
X153510497Y-73956613D01*
X153216739Y-73247418D01*
X152897970Y-73087635D01*
X151563605Y-74422000D01*
X151204395Y-74422000D01*
X149870030Y-73087635D01*
X149551261Y-73247418D01*
X149241277Y-74038187D01*
X148947000Y-74038187D01*
X148947000Y-73933822D01*
X148621966Y-73149120D01*
X148447000Y-72974154D01*
X148447000Y-72250346D01*
X148621966Y-72075380D01*
X148820795Y-71595365D01*
X149340011Y-71594080D01*
X149551261Y-72104082D01*
X149870030Y-72263865D01*
X150542792Y-71591103D01*
X150902894Y-71590211D01*
X150049635Y-72443470D01*
X150166065Y-72675750D01*
X150049635Y-72908030D01*
X151384000Y-74242395D01*
X152718365Y-72908030D01*
X152601935Y-72675750D01*
X152718365Y-72443470D01*
X151862730Y-71587835D01*
X152221053Y-71586948D01*
X152897970Y-72263865D01*
X153216739Y-72104082D01*
X153420621Y-71583979D01*
X154887104Y-71580349D01*
X154908034Y-71630880D01*
G36*
X140191500Y-79494250D02*
X140350250Y-79653000D01*
X141099500Y-79653000D01*
X141099500Y-79633000D01*
X141353500Y-79633000D01*
X141353500Y-79653000D01*
X141373500Y-79653000D01*
X141373500Y-79907000D01*
X141353500Y-79907000D01*
X141353500Y-81206250D01*
X141439031Y-81291781D01*
X141318691Y-81372191D01*
X141178343Y-81582235D01*
X141129060Y-81830000D01*
X141129060Y-83720956D01*
X140967120Y-83788034D01*
X140366534Y-84388620D01*
X140062767Y-85121980D01*
X139495001Y-84554214D01*
X139495001Y-84042082D01*
X139513317Y-83950000D01*
X139495001Y-83857916D01*
X139495001Y-83857915D01*
X139440751Y-83585182D01*
X139234098Y-83275904D01*
X139156032Y-83223742D01*
X138695000Y-82762710D01*
X138695000Y-82244670D01*
X138461310Y-81680493D01*
X138060817Y-81280000D01*
X138461310Y-80879507D01*
X138695000Y-80315330D01*
X138695000Y-80065750D01*
X140191500Y-80065750D01*
X140191500Y-80856309D01*
X140288173Y-81089698D01*
X140466801Y-81268327D01*
X140700190Y-81365000D01*
X140940750Y-81365000D01*
X141099500Y-81206250D01*
X141099500Y-79907000D01*
X140350250Y-79907000D01*
X140191500Y-80065750D01*
X138695000Y-80065750D01*
X138695000Y-79704670D01*
X138461310Y-79140493D01*
X138206817Y-78886000D01*
X140191500Y-78886000D01*
X140191500Y-79494250D01*
X140191500Y-79494250D01*
G37*
X140191500Y-79494250D02*
X140350250Y-79653000D01*
X141099500Y-79653000D01*
X141099500Y-79633000D01*
X141353500Y-79633000D01*
X141353500Y-79653000D01*
X141373500Y-79653000D01*
X141373500Y-79907000D01*
X141353500Y-79907000D01*
X141353500Y-81206250D01*
X141439031Y-81291781D01*
X141318691Y-81372191D01*
X141178343Y-81582235D01*
X141129060Y-81830000D01*
X141129060Y-83720956D01*
X140967120Y-83788034D01*
X140366534Y-84388620D01*
X140062767Y-85121980D01*
X139495001Y-84554214D01*
X139495001Y-84042082D01*
X139513317Y-83950000D01*
X139495001Y-83857916D01*
X139495001Y-83857915D01*
X139440751Y-83585182D01*
X139234098Y-83275904D01*
X139156032Y-83223742D01*
X138695000Y-82762710D01*
X138695000Y-82244670D01*
X138461310Y-81680493D01*
X138060817Y-81280000D01*
X138461310Y-80879507D01*
X138695000Y-80315330D01*
X138695000Y-80065750D01*
X140191500Y-80065750D01*
X140191500Y-80856309D01*
X140288173Y-81089698D01*
X140466801Y-81268327D01*
X140700190Y-81365000D01*
X140940750Y-81365000D01*
X141099500Y-81206250D01*
X141099500Y-79907000D01*
X140350250Y-79907000D01*
X140191500Y-80065750D01*
X138695000Y-80065750D01*
X138695000Y-79704670D01*
X138461310Y-79140493D01*
X138206817Y-78886000D01*
X140191500Y-78886000D01*
X140191500Y-79494250D01*
G04 #@! TD*
M02*
