G04 #@! TF.GenerationSoftware,KiCad,Pcbnew,(5.0.0)*
G04 #@! TF.CreationDate,2018-11-11T21:07:20+01:00*
G04 #@! TF.ProjectId,Platine,506C6174696E652E6B696361645F7063,rev?*
G04 #@! TF.SameCoordinates,Original*
G04 #@! TF.FileFunction,Legend,Bot*
G04 #@! TF.FilePolarity,Positive*
%FSLAX46Y46*%
G04 Gerber Fmt 4.6, Leading zero omitted, Abs format (unit mm)*
G04 Created by KiCad (PCBNEW (5.0.0)) date 11/11/18 21:07:20*
%MOMM*%
%LPD*%
G01*
G04 APERTURE LIST*
%ADD10C,0.225000*%
%ADD11C,0.300000*%
%ADD12C,0.200000*%
%ADD13C,0.275000*%
%ADD14C,0.150000*%
G04 APERTURE END LIST*
D10*
X157713178Y-89942142D02*
X157241750Y-89342142D01*
X157713178Y-89342142D02*
X157241750Y-89942142D01*
X156427464Y-89942142D02*
X156941750Y-89942142D01*
X156684607Y-89942142D02*
X156684607Y-89042142D01*
X156770321Y-89170714D01*
X156856035Y-89256428D01*
X156941750Y-89299285D01*
X155356035Y-89042142D02*
X155356035Y-89770714D01*
X155313178Y-89856428D01*
X155270321Y-89899285D01*
X155184607Y-89942142D01*
X155013178Y-89942142D01*
X154927464Y-89899285D01*
X154884607Y-89856428D01*
X154841750Y-89770714D01*
X154841750Y-89042142D01*
X154456035Y-89685000D02*
X154027464Y-89685000D01*
X154541750Y-89942142D02*
X154241750Y-89042142D01*
X153941750Y-89942142D01*
X153127464Y-89942142D02*
X153427464Y-89513571D01*
X153641750Y-89942142D02*
X153641750Y-89042142D01*
X153298892Y-89042142D01*
X153213178Y-89085000D01*
X153170321Y-89127857D01*
X153127464Y-89213571D01*
X153127464Y-89342142D01*
X153170321Y-89427857D01*
X153213178Y-89470714D01*
X153298892Y-89513571D01*
X153641750Y-89513571D01*
X152870321Y-89042142D02*
X152356035Y-89042142D01*
X152613178Y-89942142D02*
X152613178Y-89042142D01*
D11*
X152383595Y-71167523D02*
X152097880Y-71262761D01*
X151621690Y-71262761D01*
X151431214Y-71167523D01*
X151335976Y-71072285D01*
X151240738Y-70881809D01*
X151240738Y-70691333D01*
X151335976Y-70500857D01*
X151431214Y-70405619D01*
X151621690Y-70310380D01*
X152002642Y-70215142D01*
X152193119Y-70119904D01*
X152288357Y-70024666D01*
X152383595Y-69834190D01*
X152383595Y-69643714D01*
X152288357Y-69453238D01*
X152193119Y-69358000D01*
X152002642Y-69262761D01*
X151526452Y-69262761D01*
X151240738Y-69358000D01*
X150383595Y-71262761D02*
X150383595Y-69262761D01*
X149526452Y-71262761D02*
X149526452Y-70215142D01*
X149621690Y-70024666D01*
X149812166Y-69929428D01*
X150097880Y-69929428D01*
X150288357Y-70024666D01*
X150383595Y-70119904D01*
X148574071Y-71262761D02*
X148574071Y-69929428D01*
X148574071Y-69262761D02*
X148669309Y-69358000D01*
X148574071Y-69453238D01*
X148478833Y-69358000D01*
X148574071Y-69262761D01*
X148574071Y-69453238D01*
X146859785Y-71167523D02*
X147050261Y-71262761D01*
X147431214Y-71262761D01*
X147621690Y-71167523D01*
X147716928Y-70977047D01*
X147716928Y-70215142D01*
X147621690Y-70024666D01*
X147431214Y-69929428D01*
X147050261Y-69929428D01*
X146859785Y-70024666D01*
X146764547Y-70215142D01*
X146764547Y-70405619D01*
X147716928Y-70596095D01*
X145621690Y-71262761D02*
X145812166Y-71167523D01*
X145907404Y-70977047D01*
X145907404Y-69262761D01*
X144002642Y-71262761D02*
X144002642Y-69262761D01*
X144002642Y-71167523D02*
X144193119Y-71262761D01*
X144574071Y-71262761D01*
X144764547Y-71167523D01*
X144859785Y-71072285D01*
X144955023Y-70881809D01*
X144955023Y-70310380D01*
X144859785Y-70119904D01*
X144764547Y-70024666D01*
X144574071Y-69929428D01*
X144193119Y-69929428D01*
X144002642Y-70024666D01*
D10*
X157713178Y-88291142D02*
X157241750Y-87691142D01*
X157713178Y-87691142D02*
X157241750Y-88291142D01*
X156427464Y-88291142D02*
X156941750Y-88291142D01*
X156684607Y-88291142D02*
X156684607Y-87391142D01*
X156770321Y-87519714D01*
X156856035Y-87605428D01*
X156941750Y-87648285D01*
X154927464Y-88291142D02*
X155356035Y-88291142D01*
X155356035Y-87391142D01*
X154627464Y-88291142D02*
X154627464Y-87391142D01*
X154413178Y-87391142D01*
X154284607Y-87434000D01*
X154198892Y-87519714D01*
X154156035Y-87605428D01*
X154113178Y-87776857D01*
X154113178Y-87905428D01*
X154156035Y-88076857D01*
X154198892Y-88162571D01*
X154284607Y-88248285D01*
X154413178Y-88291142D01*
X154627464Y-88291142D01*
X153213178Y-88291142D02*
X153513178Y-87862571D01*
X153727464Y-88291142D02*
X153727464Y-87391142D01*
X153384607Y-87391142D01*
X153298892Y-87434000D01*
X153256035Y-87476857D01*
X153213178Y-87562571D01*
X153213178Y-87691142D01*
X153256035Y-87776857D01*
X153298892Y-87819714D01*
X153384607Y-87862571D01*
X153727464Y-87862571D01*
X151884607Y-88634000D02*
X151927464Y-88591142D01*
X152013178Y-88462571D01*
X152056035Y-88376857D01*
X152098892Y-88248285D01*
X152141750Y-88034000D01*
X152141750Y-87862571D01*
X152098892Y-87648285D01*
X152056035Y-87519714D01*
X152013178Y-87434000D01*
X151927464Y-87305428D01*
X151884607Y-87262571D01*
X151541750Y-88291142D02*
X151541750Y-87391142D01*
X151541750Y-87819714D02*
X151027464Y-87819714D01*
X151027464Y-88291142D02*
X151027464Y-87391142D01*
X150256035Y-88248285D02*
X150341750Y-88291142D01*
X150513178Y-88291142D01*
X150598892Y-88248285D01*
X150641750Y-88162571D01*
X150641750Y-87819714D01*
X150598892Y-87734000D01*
X150513178Y-87691142D01*
X150341750Y-87691142D01*
X150256035Y-87734000D01*
X150213178Y-87819714D01*
X150213178Y-87905428D01*
X150641750Y-87991142D01*
X149698892Y-88291142D02*
X149784607Y-88248285D01*
X149827464Y-88162571D01*
X149827464Y-87391142D01*
X149227464Y-88291142D02*
X149313178Y-88248285D01*
X149356035Y-88162571D01*
X149356035Y-87391142D01*
X148884607Y-88291142D02*
X148884607Y-87691142D01*
X148884607Y-87391142D02*
X148927464Y-87434000D01*
X148884607Y-87476857D01*
X148841750Y-87434000D01*
X148884607Y-87391142D01*
X148884607Y-87476857D01*
X148070321Y-87691142D02*
X148070321Y-88419714D01*
X148113178Y-88505428D01*
X148156035Y-88548285D01*
X148241750Y-88591142D01*
X148370321Y-88591142D01*
X148456035Y-88548285D01*
X148070321Y-88248285D02*
X148156035Y-88291142D01*
X148327464Y-88291142D01*
X148413178Y-88248285D01*
X148456035Y-88205428D01*
X148498892Y-88119714D01*
X148498892Y-87862571D01*
X148456035Y-87776857D01*
X148413178Y-87734000D01*
X148327464Y-87691142D01*
X148156035Y-87691142D01*
X148070321Y-87734000D01*
X147641750Y-88291142D02*
X147641750Y-87391142D01*
X147556035Y-87948285D02*
X147298892Y-88291142D01*
X147298892Y-87691142D02*
X147641750Y-88034000D01*
X146570321Y-88248285D02*
X146656035Y-88291142D01*
X146827464Y-88291142D01*
X146913178Y-88248285D01*
X146956035Y-88162571D01*
X146956035Y-87819714D01*
X146913178Y-87734000D01*
X146827464Y-87691142D01*
X146656035Y-87691142D01*
X146570321Y-87734000D01*
X146527464Y-87819714D01*
X146527464Y-87905428D01*
X146956035Y-87991142D01*
X146141750Y-88291142D02*
X146141750Y-87691142D01*
X146141750Y-87391142D02*
X146184607Y-87434000D01*
X146141750Y-87476857D01*
X146098892Y-87434000D01*
X146141750Y-87391142D01*
X146141750Y-87476857D01*
X145841750Y-87691142D02*
X145498892Y-87691142D01*
X145713178Y-87391142D02*
X145713178Y-88162571D01*
X145670321Y-88248285D01*
X145584607Y-88291142D01*
X145498892Y-88291142D01*
X145241750Y-88248285D02*
X145156035Y-88291142D01*
X144984607Y-88291142D01*
X144898892Y-88248285D01*
X144856035Y-88162571D01*
X144856035Y-88119714D01*
X144898892Y-88034000D01*
X144984607Y-87991142D01*
X145113178Y-87991142D01*
X145198892Y-87948285D01*
X145241750Y-87862571D01*
X145241750Y-87819714D01*
X145198892Y-87734000D01*
X145113178Y-87691142D01*
X144984607Y-87691142D01*
X144898892Y-87734000D01*
X144513178Y-88248285D02*
X144427464Y-88291142D01*
X144256035Y-88291142D01*
X144170321Y-88248285D01*
X144127464Y-88162571D01*
X144127464Y-88119714D01*
X144170321Y-88034000D01*
X144256035Y-87991142D01*
X144384607Y-87991142D01*
X144470321Y-87948285D01*
X144513178Y-87862571D01*
X144513178Y-87819714D01*
X144470321Y-87734000D01*
X144384607Y-87691142D01*
X144256035Y-87691142D01*
X144170321Y-87734000D01*
X143398892Y-88248285D02*
X143484607Y-88291142D01*
X143656035Y-88291142D01*
X143741750Y-88248285D01*
X143784607Y-88162571D01*
X143784607Y-87819714D01*
X143741750Y-87734000D01*
X143656035Y-87691142D01*
X143484607Y-87691142D01*
X143398892Y-87734000D01*
X143356035Y-87819714D01*
X143356035Y-87905428D01*
X143784607Y-87991142D01*
X142970321Y-87691142D02*
X142970321Y-88291142D01*
X142970321Y-87776857D02*
X142927464Y-87734000D01*
X142841750Y-87691142D01*
X142713178Y-87691142D01*
X142627464Y-87734000D01*
X142584607Y-87819714D01*
X142584607Y-88291142D01*
X142198892Y-88248285D02*
X142113178Y-88291142D01*
X141941750Y-88291142D01*
X141856035Y-88248285D01*
X141813178Y-88162571D01*
X141813178Y-88119714D01*
X141856035Y-88034000D01*
X141941750Y-87991142D01*
X142070321Y-87991142D01*
X142156035Y-87948285D01*
X142198892Y-87862571D01*
X142198892Y-87819714D01*
X142156035Y-87734000D01*
X142070321Y-87691142D01*
X141941750Y-87691142D01*
X141856035Y-87734000D01*
X141298892Y-88291142D02*
X141384607Y-88248285D01*
X141427464Y-88205428D01*
X141470321Y-88119714D01*
X141470321Y-87862571D01*
X141427464Y-87776857D01*
X141384607Y-87734000D01*
X141298892Y-87691142D01*
X141170321Y-87691142D01*
X141084607Y-87734000D01*
X141041750Y-87776857D01*
X140998892Y-87862571D01*
X140998892Y-88119714D01*
X141041750Y-88205428D01*
X141084607Y-88248285D01*
X141170321Y-88291142D01*
X141298892Y-88291142D01*
X140613178Y-88291142D02*
X140613178Y-87691142D01*
X140613178Y-87862571D02*
X140570321Y-87776857D01*
X140527464Y-87734000D01*
X140441750Y-87691142D01*
X140356035Y-87691142D01*
X140141750Y-88634000D02*
X140098892Y-88591142D01*
X140013178Y-88462571D01*
X139970321Y-88376857D01*
X139927464Y-88248285D01*
X139884607Y-88034000D01*
X139884607Y-87862571D01*
X139927464Y-87648285D01*
X139970321Y-87519714D01*
X140013178Y-87434000D01*
X140098892Y-87305428D01*
X140141750Y-87262571D01*
X157713178Y-86767142D02*
X157241750Y-86167142D01*
X157713178Y-86167142D02*
X157241750Y-86767142D01*
X156427464Y-86767142D02*
X156941750Y-86767142D01*
X156684607Y-86767142D02*
X156684607Y-85867142D01*
X156770321Y-85995714D01*
X156856035Y-86081428D01*
X156941750Y-86124285D01*
X155356035Y-86767142D02*
X155356035Y-85867142D01*
X154413178Y-86767142D02*
X154713178Y-86338571D01*
X154927464Y-86767142D02*
X154927464Y-85867142D01*
X154584607Y-85867142D01*
X154498892Y-85910000D01*
X154456035Y-85952857D01*
X154413178Y-86038571D01*
X154413178Y-86167142D01*
X154456035Y-86252857D01*
X154498892Y-86295714D01*
X154584607Y-86338571D01*
X154927464Y-86338571D01*
X152827464Y-86767142D02*
X153127464Y-86338571D01*
X153341750Y-86767142D02*
X153341750Y-85867142D01*
X152998892Y-85867142D01*
X152913178Y-85910000D01*
X152870321Y-85952857D01*
X152827464Y-86038571D01*
X152827464Y-86167142D01*
X152870321Y-86252857D01*
X152913178Y-86295714D01*
X152998892Y-86338571D01*
X153341750Y-86338571D01*
X152098892Y-86724285D02*
X152184607Y-86767142D01*
X152356035Y-86767142D01*
X152441750Y-86724285D01*
X152484607Y-86638571D01*
X152484607Y-86295714D01*
X152441750Y-86210000D01*
X152356035Y-86167142D01*
X152184607Y-86167142D01*
X152098892Y-86210000D01*
X152056035Y-86295714D01*
X152056035Y-86381428D01*
X152484607Y-86467142D01*
X151284607Y-86724285D02*
X151370321Y-86767142D01*
X151541750Y-86767142D01*
X151627464Y-86724285D01*
X151670321Y-86681428D01*
X151713178Y-86595714D01*
X151713178Y-86338571D01*
X151670321Y-86252857D01*
X151627464Y-86210000D01*
X151541750Y-86167142D01*
X151370321Y-86167142D01*
X151284607Y-86210000D01*
X150556035Y-86724285D02*
X150641750Y-86767142D01*
X150813178Y-86767142D01*
X150898892Y-86724285D01*
X150941750Y-86638571D01*
X150941750Y-86295714D01*
X150898892Y-86210000D01*
X150813178Y-86167142D01*
X150641750Y-86167142D01*
X150556035Y-86210000D01*
X150513178Y-86295714D01*
X150513178Y-86381428D01*
X150941750Y-86467142D01*
X150127464Y-86767142D02*
X150127464Y-86167142D01*
X150127464Y-85867142D02*
X150170321Y-85910000D01*
X150127464Y-85952857D01*
X150084607Y-85910000D01*
X150127464Y-85867142D01*
X150127464Y-85952857D01*
X149784607Y-86167142D02*
X149570321Y-86767142D01*
X149356035Y-86167142D01*
X148670321Y-86724285D02*
X148756035Y-86767142D01*
X148927464Y-86767142D01*
X149013178Y-86724285D01*
X149056035Y-86638571D01*
X149056035Y-86295714D01*
X149013178Y-86210000D01*
X148927464Y-86167142D01*
X148756035Y-86167142D01*
X148670321Y-86210000D01*
X148627464Y-86295714D01*
X148627464Y-86381428D01*
X149056035Y-86467142D01*
X148241750Y-86767142D02*
X148241750Y-86167142D01*
X148241750Y-86338571D02*
X148198892Y-86252857D01*
X148156035Y-86210000D01*
X148070321Y-86167142D01*
X147984607Y-86167142D01*
X157713178Y-85243142D02*
X157241750Y-84643142D01*
X157713178Y-84643142D02*
X157241750Y-85243142D01*
X156427464Y-85243142D02*
X156941750Y-85243142D01*
X156684607Y-85243142D02*
X156684607Y-84343142D01*
X156770321Y-84471714D01*
X156856035Y-84557428D01*
X156941750Y-84600285D01*
X155056035Y-84771714D02*
X154927464Y-84814571D01*
X154884607Y-84857428D01*
X154841750Y-84943142D01*
X154841750Y-85071714D01*
X154884607Y-85157428D01*
X154927464Y-85200285D01*
X155013178Y-85243142D01*
X155356035Y-85243142D01*
X155356035Y-84343142D01*
X155056035Y-84343142D01*
X154970321Y-84386000D01*
X154927464Y-84428857D01*
X154884607Y-84514571D01*
X154884607Y-84600285D01*
X154927464Y-84686000D01*
X154970321Y-84728857D01*
X155056035Y-84771714D01*
X155356035Y-84771714D01*
X154070321Y-84643142D02*
X154070321Y-85243142D01*
X154456035Y-84643142D02*
X154456035Y-85114571D01*
X154413178Y-85200285D01*
X154327464Y-85243142D01*
X154198892Y-85243142D01*
X154113178Y-85200285D01*
X154070321Y-85157428D01*
X153727464Y-84643142D02*
X153256035Y-84643142D01*
X153727464Y-85243142D01*
X153256035Y-85243142D01*
X152998892Y-84643142D02*
X152527464Y-84643142D01*
X152998892Y-85243142D01*
X152527464Y-85243142D01*
X151841750Y-85200285D02*
X151927464Y-85243142D01*
X152098892Y-85243142D01*
X152184607Y-85200285D01*
X152227464Y-85114571D01*
X152227464Y-84771714D01*
X152184607Y-84686000D01*
X152098892Y-84643142D01*
X151927464Y-84643142D01*
X151841750Y-84686000D01*
X151798892Y-84771714D01*
X151798892Y-84857428D01*
X152227464Y-84943142D01*
X151413178Y-85243142D02*
X151413178Y-84643142D01*
X151413178Y-84814571D02*
X151370321Y-84728857D01*
X151327464Y-84686000D01*
X151241750Y-84643142D01*
X151156035Y-84643142D01*
X157713178Y-83719142D02*
X157241750Y-83119142D01*
X157713178Y-83119142D02*
X157241750Y-83719142D01*
X156427464Y-83719142D02*
X156941750Y-83719142D01*
X156684607Y-83719142D02*
X156684607Y-82819142D01*
X156770321Y-82947714D01*
X156856035Y-83033428D01*
X156941750Y-83076285D01*
X155356035Y-83719142D02*
X155356035Y-82819142D01*
X155141750Y-82819142D01*
X155013178Y-82862000D01*
X154927464Y-82947714D01*
X154884607Y-83033428D01*
X154841750Y-83204857D01*
X154841750Y-83333428D01*
X154884607Y-83504857D01*
X154927464Y-83590571D01*
X155013178Y-83676285D01*
X155141750Y-83719142D01*
X155356035Y-83719142D01*
X154456035Y-83719142D02*
X154456035Y-82819142D01*
X154456035Y-83247714D02*
X153941750Y-83247714D01*
X153941750Y-83719142D02*
X153941750Y-82819142D01*
X153641750Y-82819142D02*
X153127464Y-82819142D01*
X153384607Y-83719142D02*
X153384607Y-82819142D01*
X152356035Y-83719142D02*
X152870321Y-83719142D01*
X152613178Y-83719142D02*
X152613178Y-82819142D01*
X152698892Y-82947714D01*
X152784607Y-83033428D01*
X152870321Y-83076285D01*
X151498892Y-83719142D02*
X152013178Y-83719142D01*
X151756035Y-83719142D02*
X151756035Y-82819142D01*
X151841750Y-82947714D01*
X151927464Y-83033428D01*
X152013178Y-83076285D01*
X149784607Y-82776285D02*
X150556035Y-83933428D01*
X148841750Y-82904857D02*
X148798892Y-82862000D01*
X148713178Y-82819142D01*
X148498892Y-82819142D01*
X148413178Y-82862000D01*
X148370321Y-82904857D01*
X148327464Y-82990571D01*
X148327464Y-83076285D01*
X148370321Y-83204857D01*
X148884607Y-83719142D01*
X148327464Y-83719142D01*
X147984607Y-82904857D02*
X147941750Y-82862000D01*
X147856035Y-82819142D01*
X147641750Y-82819142D01*
X147556035Y-82862000D01*
X147513178Y-82904857D01*
X147470321Y-82990571D01*
X147470321Y-83076285D01*
X147513178Y-83204857D01*
X148027464Y-83719142D01*
X147470321Y-83719142D01*
X157713178Y-82195142D02*
X157241750Y-81595142D01*
X157713178Y-81595142D02*
X157241750Y-82195142D01*
X156427464Y-82195142D02*
X156941750Y-82195142D01*
X156684607Y-82195142D02*
X156684607Y-81295142D01*
X156770321Y-81423714D01*
X156856035Y-81509428D01*
X156941750Y-81552285D01*
X154841750Y-82195142D02*
X155141750Y-81766571D01*
X155356035Y-82195142D02*
X155356035Y-81295142D01*
X155013178Y-81295142D01*
X154927464Y-81338000D01*
X154884607Y-81380857D01*
X154841750Y-81466571D01*
X154841750Y-81595142D01*
X154884607Y-81680857D01*
X154927464Y-81723714D01*
X155013178Y-81766571D01*
X155356035Y-81766571D01*
X154113178Y-82152285D02*
X154198892Y-82195142D01*
X154370321Y-82195142D01*
X154456035Y-82152285D01*
X154498892Y-82066571D01*
X154498892Y-81723714D01*
X154456035Y-81638000D01*
X154370321Y-81595142D01*
X154198892Y-81595142D01*
X154113178Y-81638000D01*
X154070321Y-81723714D01*
X154070321Y-81809428D01*
X154498892Y-81895142D01*
X153298892Y-82195142D02*
X153298892Y-81723714D01*
X153341750Y-81638000D01*
X153427464Y-81595142D01*
X153598892Y-81595142D01*
X153684607Y-81638000D01*
X153298892Y-82152285D02*
X153384607Y-82195142D01*
X153598892Y-82195142D01*
X153684607Y-82152285D01*
X153727464Y-82066571D01*
X153727464Y-81980857D01*
X153684607Y-81895142D01*
X153598892Y-81852285D01*
X153384607Y-81852285D01*
X153298892Y-81809428D01*
X152741750Y-82195142D02*
X152827464Y-82152285D01*
X152870321Y-82066571D01*
X152870321Y-81295142D01*
X152527464Y-81595142D02*
X152184607Y-81595142D01*
X152398892Y-81295142D02*
X152398892Y-82066571D01*
X152356035Y-82152285D01*
X152270321Y-82195142D01*
X152184607Y-82195142D01*
X151884607Y-82195142D02*
X151884607Y-81595142D01*
X151884607Y-81295142D02*
X151927464Y-81338000D01*
X151884607Y-81380857D01*
X151841750Y-81338000D01*
X151884607Y-81295142D01*
X151884607Y-81380857D01*
X151456035Y-82195142D02*
X151456035Y-81595142D01*
X151456035Y-81680857D02*
X151413178Y-81638000D01*
X151327464Y-81595142D01*
X151198892Y-81595142D01*
X151113178Y-81638000D01*
X151070321Y-81723714D01*
X151070321Y-82195142D01*
X151070321Y-81723714D02*
X151027464Y-81638000D01*
X150941750Y-81595142D01*
X150813178Y-81595142D01*
X150727464Y-81638000D01*
X150684607Y-81723714D01*
X150684607Y-82195142D01*
X149913178Y-82152285D02*
X149998892Y-82195142D01*
X150170321Y-82195142D01*
X150256035Y-82152285D01*
X150298892Y-82066571D01*
X150298892Y-81723714D01*
X150256035Y-81638000D01*
X150170321Y-81595142D01*
X149998892Y-81595142D01*
X149913178Y-81638000D01*
X149870321Y-81723714D01*
X149870321Y-81809428D01*
X150298892Y-81895142D01*
X148284607Y-82109428D02*
X148327464Y-82152285D01*
X148456035Y-82195142D01*
X148541750Y-82195142D01*
X148670321Y-82152285D01*
X148756035Y-82066571D01*
X148798892Y-81980857D01*
X148841750Y-81809428D01*
X148841750Y-81680857D01*
X148798892Y-81509428D01*
X148756035Y-81423714D01*
X148670321Y-81338000D01*
X148541750Y-81295142D01*
X148456035Y-81295142D01*
X148327464Y-81338000D01*
X148284607Y-81380857D01*
X147770321Y-82195142D02*
X147856035Y-82152285D01*
X147898892Y-82066571D01*
X147898892Y-81295142D01*
X147298892Y-82195142D02*
X147384607Y-82152285D01*
X147427464Y-82109428D01*
X147470321Y-82023714D01*
X147470321Y-81766571D01*
X147427464Y-81680857D01*
X147384607Y-81638000D01*
X147298892Y-81595142D01*
X147170321Y-81595142D01*
X147084607Y-81638000D01*
X147041750Y-81680857D01*
X146998892Y-81766571D01*
X146998892Y-82023714D01*
X147041750Y-82109428D01*
X147084607Y-82152285D01*
X147170321Y-82195142D01*
X147298892Y-82195142D01*
X146227464Y-82152285D02*
X146313178Y-82195142D01*
X146484607Y-82195142D01*
X146570321Y-82152285D01*
X146613178Y-82109428D01*
X146656035Y-82023714D01*
X146656035Y-81766571D01*
X146613178Y-81680857D01*
X146570321Y-81638000D01*
X146484607Y-81595142D01*
X146313178Y-81595142D01*
X146227464Y-81638000D01*
X145841750Y-82195142D02*
X145841750Y-81295142D01*
X145756035Y-81852285D02*
X145498892Y-82195142D01*
X145498892Y-81595142D02*
X145841750Y-81938000D01*
X144170321Y-82538000D02*
X144213178Y-82495142D01*
X144298892Y-82366571D01*
X144341750Y-82280857D01*
X144384607Y-82152285D01*
X144427464Y-81938000D01*
X144427464Y-81766571D01*
X144384607Y-81552285D01*
X144341750Y-81423714D01*
X144298892Y-81338000D01*
X144213178Y-81209428D01*
X144170321Y-81166571D01*
X143827464Y-82195142D02*
X143827464Y-81295142D01*
X143441750Y-81080857D02*
X143356035Y-81038000D01*
X143227464Y-81038000D01*
X143141750Y-81080857D01*
X143098892Y-81166571D01*
X143098892Y-81252285D01*
X143141750Y-81338000D01*
X143441750Y-81638000D01*
X143098892Y-81638000D01*
X142198892Y-82109428D02*
X142241750Y-82152285D01*
X142370321Y-82195142D01*
X142456035Y-82195142D01*
X142584607Y-82152285D01*
X142670321Y-82066571D01*
X142713178Y-81980857D01*
X142756035Y-81809428D01*
X142756035Y-81680857D01*
X142713178Y-81509428D01*
X142670321Y-81423714D01*
X142584607Y-81338000D01*
X142456035Y-81295142D01*
X142370321Y-81295142D01*
X142241750Y-81338000D01*
X142198892Y-81380857D01*
X141898892Y-82538000D02*
X141856035Y-82495142D01*
X141770321Y-82366571D01*
X141727464Y-82280857D01*
X141684607Y-82152285D01*
X141641750Y-81938000D01*
X141641750Y-81766571D01*
X141684607Y-81552285D01*
X141727464Y-81423714D01*
X141770321Y-81338000D01*
X141856035Y-81209428D01*
X141898892Y-81166571D01*
X157713178Y-80671142D02*
X157241750Y-80071142D01*
X157713178Y-80071142D02*
X157241750Y-80671142D01*
X156941750Y-79856857D02*
X156898892Y-79814000D01*
X156813178Y-79771142D01*
X156598892Y-79771142D01*
X156513178Y-79814000D01*
X156470321Y-79856857D01*
X156427464Y-79942571D01*
X156427464Y-80028285D01*
X156470321Y-80156857D01*
X156984607Y-80671142D01*
X156427464Y-80671142D01*
X155441750Y-79771142D02*
X155227464Y-80671142D01*
X155056035Y-80028285D01*
X154884607Y-80671142D01*
X154670321Y-79771142D01*
X154370321Y-80628285D02*
X154241750Y-80671142D01*
X154027464Y-80671142D01*
X153941750Y-80628285D01*
X153898892Y-80585428D01*
X153856035Y-80499714D01*
X153856035Y-80414000D01*
X153898892Y-80328285D01*
X153941750Y-80285428D01*
X154027464Y-80242571D01*
X154198892Y-80199714D01*
X154284607Y-80156857D01*
X154327464Y-80114000D01*
X154370321Y-80028285D01*
X154370321Y-79942571D01*
X154327464Y-79856857D01*
X154284607Y-79814000D01*
X154198892Y-79771142D01*
X153984607Y-79771142D01*
X153856035Y-79814000D01*
X153513178Y-79856857D02*
X153470321Y-79814000D01*
X153384607Y-79771142D01*
X153170321Y-79771142D01*
X153084607Y-79814000D01*
X153041750Y-79856857D01*
X152998892Y-79942571D01*
X152998892Y-80028285D01*
X153041750Y-80156857D01*
X153556035Y-80671142D01*
X152998892Y-80671142D01*
X152484607Y-80156857D02*
X152570321Y-80114000D01*
X152613178Y-80071142D01*
X152656035Y-79985428D01*
X152656035Y-79942571D01*
X152613178Y-79856857D01*
X152570321Y-79814000D01*
X152484607Y-79771142D01*
X152313178Y-79771142D01*
X152227464Y-79814000D01*
X152184607Y-79856857D01*
X152141750Y-79942571D01*
X152141750Y-79985428D01*
X152184607Y-80071142D01*
X152227464Y-80114000D01*
X152313178Y-80156857D01*
X152484607Y-80156857D01*
X152570321Y-80199714D01*
X152613178Y-80242571D01*
X152656035Y-80328285D01*
X152656035Y-80499714D01*
X152613178Y-80585428D01*
X152570321Y-80628285D01*
X152484607Y-80671142D01*
X152313178Y-80671142D01*
X152227464Y-80628285D01*
X152184607Y-80585428D01*
X152141750Y-80499714D01*
X152141750Y-80328285D01*
X152184607Y-80242571D01*
X152227464Y-80199714D01*
X152313178Y-80156857D01*
X151284607Y-80671142D02*
X151798892Y-80671142D01*
X151541750Y-80671142D02*
X151541750Y-79771142D01*
X151627464Y-79899714D01*
X151713178Y-79985428D01*
X151798892Y-80028285D01*
X150941750Y-79856857D02*
X150898892Y-79814000D01*
X150813178Y-79771142D01*
X150598892Y-79771142D01*
X150513178Y-79814000D01*
X150470321Y-79856857D01*
X150427464Y-79942571D01*
X150427464Y-80028285D01*
X150470321Y-80156857D01*
X150984607Y-80671142D01*
X150427464Y-80671142D01*
X148927464Y-80671142D02*
X149356035Y-80671142D01*
X149356035Y-79771142D01*
X148284607Y-80628285D02*
X148370321Y-80671142D01*
X148541750Y-80671142D01*
X148627464Y-80628285D01*
X148670321Y-80542571D01*
X148670321Y-80199714D01*
X148627464Y-80114000D01*
X148541750Y-80071142D01*
X148370321Y-80071142D01*
X148284607Y-80114000D01*
X148241750Y-80199714D01*
X148241750Y-80285428D01*
X148670321Y-80371142D01*
X147470321Y-80671142D02*
X147470321Y-79771142D01*
X147470321Y-80628285D02*
X147556035Y-80671142D01*
X147727464Y-80671142D01*
X147813178Y-80628285D01*
X147856035Y-80585428D01*
X147898892Y-80499714D01*
X147898892Y-80242571D01*
X147856035Y-80156857D01*
X147813178Y-80114000D01*
X147727464Y-80071142D01*
X147556035Y-80071142D01*
X147470321Y-80114000D01*
X146398892Y-80628285D02*
X146270321Y-80671142D01*
X146056035Y-80671142D01*
X145970321Y-80628285D01*
X145927464Y-80585428D01*
X145884607Y-80499714D01*
X145884607Y-80414000D01*
X145927464Y-80328285D01*
X145970321Y-80285428D01*
X146056035Y-80242571D01*
X146227464Y-80199714D01*
X146313178Y-80156857D01*
X146356035Y-80114000D01*
X146398892Y-80028285D01*
X146398892Y-79942571D01*
X146356035Y-79856857D01*
X146313178Y-79814000D01*
X146227464Y-79771142D01*
X146013178Y-79771142D01*
X145884607Y-79814000D01*
X145627464Y-80071142D02*
X145284607Y-80071142D01*
X145498892Y-79771142D02*
X145498892Y-80542571D01*
X145456035Y-80628285D01*
X145370321Y-80671142D01*
X145284607Y-80671142D01*
X144984607Y-80671142D02*
X144984607Y-80071142D01*
X144984607Y-80242571D02*
X144941750Y-80156857D01*
X144898892Y-80114000D01*
X144813178Y-80071142D01*
X144727464Y-80071142D01*
X144427464Y-80671142D02*
X144427464Y-80071142D01*
X144427464Y-79771142D02*
X144470321Y-79814000D01*
X144427464Y-79856857D01*
X144384607Y-79814000D01*
X144427464Y-79771142D01*
X144427464Y-79856857D01*
X143998892Y-80071142D02*
X143998892Y-80971142D01*
X143998892Y-80114000D02*
X143913178Y-80071142D01*
X143741750Y-80071142D01*
X143656035Y-80114000D01*
X143613178Y-80156857D01*
X143570321Y-80242571D01*
X143570321Y-80499714D01*
X143613178Y-80585428D01*
X143656035Y-80628285D01*
X143741750Y-80671142D01*
X143913178Y-80671142D01*
X143998892Y-80628285D01*
X143227464Y-80628285D02*
X143141750Y-80671142D01*
X142970321Y-80671142D01*
X142884607Y-80628285D01*
X142841750Y-80542571D01*
X142841750Y-80499714D01*
X142884607Y-80414000D01*
X142970321Y-80371142D01*
X143098892Y-80371142D01*
X143184607Y-80328285D01*
X143227464Y-80242571D01*
X143227464Y-80199714D01*
X143184607Y-80114000D01*
X143098892Y-80071142D01*
X142970321Y-80071142D01*
X142884607Y-80114000D01*
D12*
X161163000Y-76327000D02*
X135636000Y-76327000D01*
D13*
X157853726Y-78423238D02*
X157696583Y-78475619D01*
X157434678Y-78475619D01*
X157329916Y-78423238D01*
X157277535Y-78370857D01*
X157225154Y-78266095D01*
X157225154Y-78161333D01*
X157277535Y-78056571D01*
X157329916Y-78004190D01*
X157434678Y-77951809D01*
X157644202Y-77899428D01*
X157748964Y-77847047D01*
X157801345Y-77794666D01*
X157853726Y-77689904D01*
X157853726Y-77585142D01*
X157801345Y-77480380D01*
X157748964Y-77428000D01*
X157644202Y-77375619D01*
X157382297Y-77375619D01*
X157225154Y-77428000D01*
X156282297Y-77742285D02*
X156282297Y-78475619D01*
X156753726Y-77742285D02*
X156753726Y-78318476D01*
X156701345Y-78423238D01*
X156596583Y-78475619D01*
X156439440Y-78475619D01*
X156334678Y-78423238D01*
X156282297Y-78370857D01*
X155758488Y-77742285D02*
X155758488Y-78842285D01*
X155758488Y-77794666D02*
X155653726Y-77742285D01*
X155444202Y-77742285D01*
X155339440Y-77794666D01*
X155287059Y-77847047D01*
X155234678Y-77951809D01*
X155234678Y-78266095D01*
X155287059Y-78370857D01*
X155339440Y-78423238D01*
X155444202Y-78475619D01*
X155653726Y-78475619D01*
X155758488Y-78423238D01*
X154763250Y-77742285D02*
X154763250Y-78842285D01*
X154763250Y-77794666D02*
X154658488Y-77742285D01*
X154448964Y-77742285D01*
X154344202Y-77794666D01*
X154291821Y-77847047D01*
X154239440Y-77951809D01*
X154239440Y-78266095D01*
X154291821Y-78370857D01*
X154344202Y-78423238D01*
X154448964Y-78475619D01*
X154658488Y-78475619D01*
X154763250Y-78423238D01*
X153610869Y-78475619D02*
X153715630Y-78423238D01*
X153768011Y-78370857D01*
X153820392Y-78266095D01*
X153820392Y-77951809D01*
X153768011Y-77847047D01*
X153715630Y-77794666D01*
X153610869Y-77742285D01*
X153453726Y-77742285D01*
X153348964Y-77794666D01*
X153296583Y-77847047D01*
X153244202Y-77951809D01*
X153244202Y-78266095D01*
X153296583Y-78370857D01*
X153348964Y-78423238D01*
X153453726Y-78475619D01*
X153610869Y-78475619D01*
X152772773Y-78475619D02*
X152772773Y-77742285D01*
X152772773Y-77951809D02*
X152720392Y-77847047D01*
X152668011Y-77794666D01*
X152563250Y-77742285D01*
X152458488Y-77742285D01*
X152248964Y-77742285D02*
X151829916Y-77742285D01*
X152091821Y-77375619D02*
X152091821Y-78318476D01*
X152039440Y-78423238D01*
X151934678Y-78475619D01*
X151829916Y-78475619D01*
X151463250Y-78370857D02*
X151410869Y-78423238D01*
X151463250Y-78475619D01*
X151515630Y-78423238D01*
X151463250Y-78370857D01*
X151463250Y-78475619D01*
X151463250Y-77794666D02*
X151410869Y-77847047D01*
X151463250Y-77899428D01*
X151515630Y-77847047D01*
X151463250Y-77794666D01*
X151463250Y-77899428D01*
D11*
X155990000Y-74202857D02*
X155990000Y-73002857D01*
X155990000Y-73460000D02*
X155875714Y-73402857D01*
X155647142Y-73402857D01*
X155532857Y-73460000D01*
X155475714Y-73517142D01*
X155418571Y-73631428D01*
X155418571Y-73974285D01*
X155475714Y-74088571D01*
X155532857Y-74145714D01*
X155647142Y-74202857D01*
X155875714Y-74202857D01*
X155990000Y-74145714D01*
X155018571Y-73402857D02*
X154732857Y-74202857D01*
X154447142Y-73402857D02*
X154732857Y-74202857D01*
X154847142Y-74488571D01*
X154904285Y-74545714D01*
X155018571Y-74602857D01*
X152390000Y-74202857D02*
X152790000Y-73631428D01*
X153075714Y-74202857D02*
X153075714Y-73002857D01*
X152618571Y-73002857D01*
X152504285Y-73060000D01*
X152447142Y-73117142D01*
X152390000Y-73231428D01*
X152390000Y-73402857D01*
X152447142Y-73517142D01*
X152504285Y-73574285D01*
X152618571Y-73631428D01*
X153075714Y-73631428D01*
X151875714Y-74202857D02*
X151875714Y-73402857D01*
X151875714Y-73002857D02*
X151932857Y-73060000D01*
X151875714Y-73117142D01*
X151818571Y-73060000D01*
X151875714Y-73002857D01*
X151875714Y-73117142D01*
X150790000Y-74145714D02*
X150904285Y-74202857D01*
X151132857Y-74202857D01*
X151247142Y-74145714D01*
X151304285Y-74088571D01*
X151361428Y-73974285D01*
X151361428Y-73631428D01*
X151304285Y-73517142D01*
X151247142Y-73460000D01*
X151132857Y-73402857D01*
X150904285Y-73402857D01*
X150790000Y-73460000D01*
X150275714Y-74202857D02*
X150275714Y-73002857D01*
X150161428Y-73745714D02*
X149818571Y-74202857D01*
X149818571Y-73402857D02*
X150275714Y-73860000D01*
X148390000Y-74202857D02*
X148390000Y-73002857D01*
X148390000Y-73574285D02*
X147704285Y-73574285D01*
X147704285Y-74202857D02*
X147704285Y-73002857D01*
X146961428Y-74202857D02*
X147075714Y-74145714D01*
X147132857Y-74088571D01*
X147190000Y-73974285D01*
X147190000Y-73631428D01*
X147132857Y-73517142D01*
X147075714Y-73460000D01*
X146961428Y-73402857D01*
X146790000Y-73402857D01*
X146675714Y-73460000D01*
X146618571Y-73517142D01*
X146561428Y-73631428D01*
X146561428Y-73974285D01*
X146618571Y-74088571D01*
X146675714Y-74145714D01*
X146790000Y-74202857D01*
X146961428Y-74202857D01*
X145875714Y-74202857D02*
X145990000Y-74145714D01*
X146047142Y-74031428D01*
X146047142Y-73002857D01*
X145247142Y-74202857D02*
X145361428Y-74145714D01*
X145418571Y-74031428D01*
X145418571Y-73002857D01*
X144790000Y-74202857D02*
X144790000Y-73402857D01*
X144790000Y-73002857D02*
X144847142Y-73060000D01*
X144790000Y-73117142D01*
X144732857Y-73060000D01*
X144790000Y-73002857D01*
X144790000Y-73117142D01*
X144218571Y-73402857D02*
X144218571Y-74202857D01*
X144218571Y-73517142D02*
X144161428Y-73460000D01*
X144047142Y-73402857D01*
X143875714Y-73402857D01*
X143761428Y-73460000D01*
X143704285Y-73574285D01*
X143704285Y-74202857D01*
X143190000Y-74145714D02*
X143075714Y-74202857D01*
X142847142Y-74202857D01*
X142732857Y-74145714D01*
X142675714Y-74031428D01*
X142675714Y-73974285D01*
X142732857Y-73860000D01*
X142847142Y-73802857D01*
X143018571Y-73802857D01*
X143132857Y-73745714D01*
X143190000Y-73631428D01*
X143190000Y-73574285D01*
X143132857Y-73460000D01*
X143018571Y-73402857D01*
X142847142Y-73402857D01*
X142732857Y-73460000D01*
X142161428Y-74202857D02*
X142161428Y-73002857D01*
X142047142Y-73745714D02*
X141704285Y-74202857D01*
X141704285Y-73402857D02*
X142161428Y-73860000D01*
X141190000Y-74202857D02*
X141190000Y-73402857D01*
X141190000Y-73002857D02*
X141247142Y-73060000D01*
X141190000Y-73117142D01*
X141132857Y-73060000D01*
X141190000Y-73002857D01*
X141190000Y-73117142D01*
X156891571Y-66171071D02*
X156534428Y-67671071D01*
X156248714Y-66599642D01*
X155963000Y-67671071D01*
X155605857Y-66171071D01*
X154463000Y-67599642D02*
X154605857Y-67671071D01*
X154891571Y-67671071D01*
X155034428Y-67599642D01*
X155105857Y-67456785D01*
X155105857Y-66885357D01*
X155034428Y-66742500D01*
X154891571Y-66671071D01*
X154605857Y-66671071D01*
X154463000Y-66742500D01*
X154391571Y-66885357D01*
X154391571Y-67028214D01*
X155105857Y-67171071D01*
X153748714Y-67671071D02*
X153748714Y-66671071D01*
X153748714Y-66813928D02*
X153677285Y-66742500D01*
X153534428Y-66671071D01*
X153320142Y-66671071D01*
X153177285Y-66742500D01*
X153105857Y-66885357D01*
X153105857Y-67671071D01*
X153105857Y-66885357D02*
X153034428Y-66742500D01*
X152891571Y-66671071D01*
X152677285Y-66671071D01*
X152534428Y-66742500D01*
X152463000Y-66885357D01*
X152463000Y-67671071D01*
X151534428Y-67671071D02*
X151677285Y-67599642D01*
X151748714Y-67528214D01*
X151820142Y-67385357D01*
X151820142Y-66956785D01*
X151748714Y-66813928D01*
X151677285Y-66742500D01*
X151534428Y-66671071D01*
X151320142Y-66671071D01*
X151177285Y-66742500D01*
X151105857Y-66813928D01*
X151034428Y-66956785D01*
X151034428Y-67385357D01*
X151105857Y-67528214D01*
X151177285Y-67599642D01*
X151320142Y-67671071D01*
X151534428Y-67671071D01*
X150463000Y-67599642D02*
X150320142Y-67671071D01*
X150034428Y-67671071D01*
X149891571Y-67599642D01*
X149820142Y-67456785D01*
X149820142Y-67385357D01*
X149891571Y-67242500D01*
X150034428Y-67171071D01*
X150248714Y-67171071D01*
X150391571Y-67099642D01*
X150463000Y-66956785D01*
X150463000Y-66885357D01*
X150391571Y-66742500D01*
X150248714Y-66671071D01*
X150034428Y-66671071D01*
X149891571Y-66742500D01*
X148034428Y-67671071D02*
X148034428Y-66171071D01*
X147677285Y-66171071D01*
X147463000Y-66242500D01*
X147320142Y-66385357D01*
X147248714Y-66528214D01*
X147177285Y-66813928D01*
X147177285Y-67028214D01*
X147248714Y-67313928D01*
X147320142Y-67456785D01*
X147463000Y-67599642D01*
X147677285Y-67671071D01*
X148034428Y-67671071D01*
X145748714Y-67671071D02*
X146605857Y-67671071D01*
X146177285Y-67671071D02*
X146177285Y-66171071D01*
X146320142Y-66385357D01*
X146463000Y-66528214D01*
X146605857Y-66599642D01*
X143963000Y-67671071D02*
X143963000Y-66171071D01*
X143463000Y-67242500D01*
X142963000Y-66171071D01*
X142963000Y-67671071D01*
X142248714Y-67671071D02*
X142248714Y-66671071D01*
X142248714Y-66171071D02*
X142320142Y-66242500D01*
X142248714Y-66313928D01*
X142177285Y-66242500D01*
X142248714Y-66171071D01*
X142248714Y-66313928D01*
X141534428Y-66671071D02*
X141534428Y-67671071D01*
X141534428Y-66813928D02*
X141463000Y-66742500D01*
X141320142Y-66671071D01*
X141105857Y-66671071D01*
X140963000Y-66742500D01*
X140891571Y-66885357D01*
X140891571Y-67671071D01*
X140177285Y-67671071D02*
X140177285Y-66671071D01*
X140177285Y-66171071D02*
X140248714Y-66242500D01*
X140177285Y-66313928D01*
X140105857Y-66242500D01*
X140177285Y-66171071D01*
X140177285Y-66313928D01*
D14*
G04 #@! TO.C,U1*
X135260000Y-99580000D02*
X135260000Y-66500000D01*
X137260000Y-64500000D02*
X159920000Y-64500000D01*
X161920000Y-66500000D02*
X161920000Y-92580000D01*
X159770000Y-99580000D02*
X151910000Y-99580000D01*
X151910000Y-99580000D02*
X151910000Y-98580000D01*
X151910000Y-98580000D02*
X143690000Y-98580000D01*
X143690000Y-98580000D02*
X143690000Y-99580000D01*
X143690000Y-99580000D02*
X135260001Y-99580000D01*
X159920000Y-64500000D02*
G75*
G02X161920000Y-66500000I0J-2000000D01*
G01*
X135260000Y-66500000D02*
G75*
G02X137260000Y-64500000I2000000J0D01*
G01*
X159770000Y-99580000D02*
X159770000Y-93580000D01*
X159770000Y-93580000D02*
G75*
G02X160770000Y-92580000I1000000J0D01*
G01*
X160760000Y-92580000D02*
X161920000Y-92580000D01*
X161920000Y-92580000D02*
X161920000Y-92580000D01*
X149351904Y-100032380D02*
X149351904Y-100841904D01*
X149304285Y-100937142D01*
X149256666Y-100984761D01*
X149161428Y-101032380D01*
X148970952Y-101032380D01*
X148875714Y-100984761D01*
X148828095Y-100937142D01*
X148780476Y-100841904D01*
X148780476Y-100032380D01*
X147780476Y-101032380D02*
X148351904Y-101032380D01*
X148066190Y-101032380D02*
X148066190Y-100032380D01*
X148161428Y-100175238D01*
X148256666Y-100270476D01*
X148351904Y-100318095D01*
G04 #@! TD*
M02*
