G04 #@! TF.GenerationSoftware,KiCad,Pcbnew,(5.0.0)*
G04 #@! TF.CreationDate,2018-11-11T21:07:20+01:00*
G04 #@! TF.ProjectId,Platine,506C6174696E652E6B696361645F7063,rev?*
G04 #@! TF.SameCoordinates,Original*
G04 #@! TF.FileFunction,Legend,Top*
G04 #@! TF.FilePolarity,Positive*
%FSLAX46Y46*%
G04 Gerber Fmt 4.6, Leading zero omitted, Abs format (unit mm)*
G04 Created by KiCad (PCBNEW (5.0.0)) date 11/11/18 21:07:20*
%MOMM*%
%LPD*%
G01*
G04 APERTURE LIST*
%ADD10C,0.200000*%
%ADD11C,0.400000*%
%ADD12C,0.120000*%
%ADD13C,0.150000*%
G04 APERTURE END LIST*
D10*
X149098000Y-67945000D02*
X149098000Y-85344000D01*
D11*
X139840000Y-64924952D02*
X140435238Y-67424952D01*
X140911428Y-65639238D01*
X141387619Y-67424952D01*
X141982857Y-64924952D01*
X143292380Y-67424952D02*
X143054285Y-67305904D01*
X142935238Y-67186857D01*
X142816190Y-66948761D01*
X142816190Y-66234476D01*
X142935238Y-65996380D01*
X143054285Y-65877333D01*
X143292380Y-65758285D01*
X143649523Y-65758285D01*
X143887619Y-65877333D01*
X144006666Y-65996380D01*
X144125714Y-66234476D01*
X144125714Y-66948761D01*
X144006666Y-67186857D01*
X143887619Y-67305904D01*
X143649523Y-67424952D01*
X143292380Y-67424952D01*
X143054285Y-64924952D02*
X143173333Y-65044000D01*
X143054285Y-65163047D01*
X142935238Y-65044000D01*
X143054285Y-64924952D01*
X143054285Y-65163047D01*
X144006666Y-64924952D02*
X144125714Y-65044000D01*
X144006666Y-65163047D01*
X143887619Y-65044000D01*
X144006666Y-64924952D01*
X144006666Y-65163047D01*
X145197142Y-67424952D02*
X145197142Y-65758285D01*
X145197142Y-66234476D02*
X145316190Y-65996380D01*
X145435238Y-65877333D01*
X145673333Y-65758285D01*
X145911428Y-65758285D01*
X146387619Y-65758285D02*
X147340000Y-65758285D01*
X146744761Y-64924952D02*
X146744761Y-67067809D01*
X146863809Y-67305904D01*
X147101904Y-67424952D01*
X147340000Y-67424952D01*
X149125714Y-67305904D02*
X148887619Y-67424952D01*
X148411428Y-67424952D01*
X148173333Y-67305904D01*
X148054285Y-67067809D01*
X148054285Y-66115428D01*
X148173333Y-65877333D01*
X148411428Y-65758285D01*
X148887619Y-65758285D01*
X149125714Y-65877333D01*
X149244761Y-66115428D01*
X149244761Y-66353523D01*
X148054285Y-66591619D01*
X150316190Y-67424952D02*
X150316190Y-65758285D01*
X150316190Y-66234476D02*
X150435238Y-65996380D01*
X150554285Y-65877333D01*
X150792380Y-65758285D01*
X151030476Y-65758285D01*
X151863809Y-64924952D02*
X151863809Y-66948761D01*
X151982857Y-67186857D01*
X152101904Y-67305904D01*
X152340000Y-67424952D01*
X152816190Y-67424952D01*
X153054285Y-67305904D01*
X153173333Y-67186857D01*
X153292380Y-66948761D01*
X153292380Y-64924952D01*
X154482857Y-67424952D02*
X154482857Y-64924952D01*
X155554285Y-67424952D02*
X155554285Y-66115428D01*
X155435238Y-65877333D01*
X155197142Y-65758285D01*
X154840000Y-65758285D01*
X154601904Y-65877333D01*
X154482857Y-65996380D01*
X156744761Y-67424952D02*
X156744761Y-65758285D01*
X156744761Y-66234476D02*
X156863809Y-65996380D01*
X156982857Y-65877333D01*
X157220952Y-65758285D01*
X157459047Y-65758285D01*
D10*
X138684000Y-87884000D02*
X144272000Y-87884000D01*
X138684000Y-76454000D02*
X144272000Y-76454000D01*
X138684000Y-92557600D02*
X138684000Y-67945000D01*
X144272000Y-92557600D02*
X135686800Y-92557600D01*
X153670000Y-86106000D02*
X153670000Y-92456000D01*
X153670000Y-85534500D02*
X158750000Y-85534500D01*
X153670000Y-79819500D02*
X158623000Y-79819500D01*
X158750000Y-67945000D02*
X158750000Y-92456000D01*
X153670000Y-75501500D02*
X158623000Y-75501500D01*
X153670000Y-86106000D02*
X153670000Y-67945000D01*
X144272000Y-86931500D02*
X153670000Y-86931500D01*
X144272000Y-67945000D02*
X144272000Y-92506800D01*
X135636000Y-67881500D02*
X161290000Y-67881500D01*
D12*
G04 #@! TO.C,Q1*
X140596500Y-82040000D02*
X141526500Y-82040000D01*
X143756500Y-82040000D02*
X142826500Y-82040000D01*
X143756500Y-82040000D02*
X143756500Y-78880000D01*
X140596500Y-82040000D02*
X140596500Y-80580000D01*
G04 #@! TO.C,R1*
X147237267Y-91247500D02*
X146894733Y-91247500D01*
X147237267Y-92267500D02*
X146894733Y-92267500D01*
G04 #@! TO.C,R2*
X151745767Y-92267500D02*
X151403233Y-92267500D01*
X151745767Y-91247500D02*
X151403233Y-91247500D01*
G04 #@! TO.C,R3*
X156546733Y-89787000D02*
X156889267Y-89787000D01*
X156546733Y-90807000D02*
X156889267Y-90807000D01*
G04 #@! TO.C,R4*
X156855857Y-83777398D02*
X156513323Y-83777398D01*
X156855857Y-84797398D02*
X156513323Y-84797398D01*
G04 #@! TO.C,R5*
X156889267Y-72388000D02*
X156546733Y-72388000D01*
X156889267Y-73408000D02*
X156546733Y-73408000D01*
G04 #@! TO.C,R6*
X142347767Y-78361000D02*
X142005233Y-78361000D01*
X142347767Y-77341000D02*
X142005233Y-77341000D01*
G04 #@! TO.C,C1*
X156915752Y-75195500D02*
X156393248Y-75195500D01*
X156915752Y-73775500D02*
X156393248Y-73775500D01*
G04 #@! TO.C,J1*
X144117000Y-95758000D02*
G75*
G03X144117000Y-95758000I-1750000J0D01*
G01*
G04 #@! TO.C,J2*
X153134000Y-84899500D02*
G75*
G03X153134000Y-84899500I-1750000J0D01*
G01*
G04 #@! TO.C,J3*
X158468000Y-87693500D02*
G75*
G03X158468000Y-87693500I-1750000J0D01*
G01*
G04 #@! TO.C,J4*
X148562000Y-70866000D02*
G75*
G03X148562000Y-70866000I-1750000J0D01*
G01*
G04 #@! TO.C,J5*
X148562000Y-74358500D02*
G75*
G03X148562000Y-74358500I-1750000J0D01*
G01*
G04 #@! TO.C,J6*
X143926500Y-90424000D02*
G75*
G03X143926500Y-90424000I-1750000J0D01*
G01*
G04 #@! TO.C,J7*
X148816000Y-89471500D02*
G75*
G03X148816000Y-89471500I-1750000J0D01*
G01*
G04 #@! TO.C,J8*
X153134000Y-77914500D02*
G75*
G03X153134000Y-77914500I-1750000J0D01*
G01*
G04 #@! TO.C,J9*
X153324500Y-89471500D02*
G75*
G03X153324500Y-89471500I-1750000J0D01*
G01*
G04 #@! TO.C,J10*
X153134000Y-81407000D02*
G75*
G03X153134000Y-81407000I-1750000J0D01*
G01*
G04 #@! TO.C,J11*
X148562000Y-84836000D02*
G75*
G03X148562000Y-84836000I-1750000J0D01*
G01*
G04 #@! TO.C,J12*
X158434590Y-82001398D02*
G75*
G03X158434590Y-82001398I-1750000J0D01*
G01*
G04 #@! TO.C,J13*
X158468000Y-77724000D02*
G75*
G03X158468000Y-77724000I-1750000J0D01*
G01*
G04 #@! TO.C,J14*
X153134000Y-74422000D02*
G75*
G03X153134000Y-74422000I-1750000J0D01*
G01*
G04 #@! TO.C,J15*
X148562000Y-81343500D02*
G75*
G03X148562000Y-81343500I-1750000J0D01*
G01*
G04 #@! TO.C,J16*
X158468000Y-70421500D02*
G75*
G03X158468000Y-70421500I-1750000J0D01*
G01*
G04 #@! TO.C,J17*
X139799000Y-95758000D02*
G75*
G03X139799000Y-95758000I-1750000J0D01*
G01*
G04 #@! TO.C,J18*
X143926500Y-85598000D02*
G75*
G03X143926500Y-85598000I-1750000J0D01*
G01*
G04 #@! TO.C,J19*
X148562000Y-77851000D02*
G75*
G03X148562000Y-77851000I-1750000J0D01*
G01*
G04 #@! TO.C,J20*
X143926500Y-74422000D02*
G75*
G03X143926500Y-74422000I-1750000J0D01*
G01*
G04 #@! TO.C,J21*
X143926500Y-70739000D02*
G75*
G03X143926500Y-70739000I-1750000J0D01*
G01*
G04 #@! TO.C,J22*
X153134000Y-70929500D02*
G75*
G03X153134000Y-70929500I-1750000J0D01*
G01*
G04 #@! TO.C,Q1*
D13*
X140210333Y-81473666D02*
X140177000Y-81540333D01*
X140110333Y-81607000D01*
X140010333Y-81707000D01*
X139977000Y-81773666D01*
X139977000Y-81840333D01*
X140143666Y-81807000D02*
X140110333Y-81873666D01*
X140043666Y-81940333D01*
X139910333Y-81973666D01*
X139677000Y-81973666D01*
X139543666Y-81940333D01*
X139477000Y-81873666D01*
X139443666Y-81807000D01*
X139443666Y-81673666D01*
X139477000Y-81607000D01*
X139543666Y-81540333D01*
X139677000Y-81507000D01*
X139910333Y-81507000D01*
X140043666Y-81540333D01*
X140110333Y-81607000D01*
X140143666Y-81673666D01*
X140143666Y-81807000D01*
X140143666Y-80840333D02*
X140143666Y-81240333D01*
X140143666Y-81040333D02*
X139443666Y-81040333D01*
X139543666Y-81107000D01*
X139610333Y-81173666D01*
X139643666Y-81240333D01*
G04 #@! TO.C,R1*
X145299866Y-91886866D02*
X144966533Y-92120200D01*
X145299866Y-92286866D02*
X144599866Y-92286866D01*
X144599866Y-92020200D01*
X144633200Y-91953533D01*
X144666533Y-91920200D01*
X144733200Y-91886866D01*
X144833200Y-91886866D01*
X144899866Y-91920200D01*
X144933200Y-91953533D01*
X144966533Y-92020200D01*
X144966533Y-92286866D01*
X145299866Y-91220200D02*
X145299866Y-91620200D01*
X145299866Y-91420200D02*
X144599866Y-91420200D01*
X144699866Y-91486866D01*
X144766533Y-91553533D01*
X144799866Y-91620200D01*
G04 #@! TO.C,R2*
X149795666Y-91886866D02*
X149462333Y-92120200D01*
X149795666Y-92286866D02*
X149095666Y-92286866D01*
X149095666Y-92020200D01*
X149129000Y-91953533D01*
X149162333Y-91920200D01*
X149229000Y-91886866D01*
X149329000Y-91886866D01*
X149395666Y-91920200D01*
X149429000Y-91953533D01*
X149462333Y-92020200D01*
X149462333Y-92286866D01*
X149162333Y-91620200D02*
X149129000Y-91586866D01*
X149095666Y-91520200D01*
X149095666Y-91353533D01*
X149129000Y-91286866D01*
X149162333Y-91253533D01*
X149229000Y-91220200D01*
X149295666Y-91220200D01*
X149395666Y-91253533D01*
X149795666Y-91653533D01*
X149795666Y-91220200D01*
G04 #@! TO.C,R3*
X154939166Y-90350166D02*
X154605833Y-90583500D01*
X154939166Y-90750166D02*
X154239166Y-90750166D01*
X154239166Y-90483500D01*
X154272500Y-90416833D01*
X154305833Y-90383500D01*
X154372500Y-90350166D01*
X154472500Y-90350166D01*
X154539166Y-90383500D01*
X154572500Y-90416833D01*
X154605833Y-90483500D01*
X154605833Y-90750166D01*
X154239166Y-90116833D02*
X154239166Y-89683500D01*
X154505833Y-89916833D01*
X154505833Y-89816833D01*
X154539166Y-89750166D01*
X154572500Y-89716833D01*
X154639166Y-89683500D01*
X154805833Y-89683500D01*
X154872500Y-89716833D01*
X154905833Y-89750166D01*
X154939166Y-89816833D01*
X154939166Y-90016833D01*
X154905833Y-90083500D01*
X154872500Y-90116833D01*
G04 #@! TO.C,R4*
X154939166Y-84381166D02*
X154605833Y-84614500D01*
X154939166Y-84781166D02*
X154239166Y-84781166D01*
X154239166Y-84514500D01*
X154272500Y-84447833D01*
X154305833Y-84414500D01*
X154372500Y-84381166D01*
X154472500Y-84381166D01*
X154539166Y-84414500D01*
X154572500Y-84447833D01*
X154605833Y-84514500D01*
X154605833Y-84781166D01*
X154472500Y-83781166D02*
X154939166Y-83781166D01*
X154205833Y-83947833D02*
X154705833Y-84114500D01*
X154705833Y-83681166D01*
G04 #@! TO.C,R5*
X154748666Y-73014666D02*
X154415333Y-73248000D01*
X154748666Y-73414666D02*
X154048666Y-73414666D01*
X154048666Y-73148000D01*
X154082000Y-73081333D01*
X154115333Y-73048000D01*
X154182000Y-73014666D01*
X154282000Y-73014666D01*
X154348666Y-73048000D01*
X154382000Y-73081333D01*
X154415333Y-73148000D01*
X154415333Y-73414666D01*
X154048666Y-72381333D02*
X154048666Y-72714666D01*
X154382000Y-72748000D01*
X154348666Y-72714666D01*
X154315333Y-72648000D01*
X154315333Y-72481333D01*
X154348666Y-72414666D01*
X154382000Y-72381333D01*
X154448666Y-72348000D01*
X154615333Y-72348000D01*
X154682000Y-72381333D01*
X154715333Y-72414666D01*
X154748666Y-72481333D01*
X154748666Y-72648000D01*
X154715333Y-72714666D01*
X154682000Y-72748000D01*
G04 #@! TO.C,R6*
X140143666Y-77967666D02*
X139810333Y-78201000D01*
X140143666Y-78367666D02*
X139443666Y-78367666D01*
X139443666Y-78101000D01*
X139477000Y-78034333D01*
X139510333Y-78001000D01*
X139577000Y-77967666D01*
X139677000Y-77967666D01*
X139743666Y-78001000D01*
X139777000Y-78034333D01*
X139810333Y-78101000D01*
X139810333Y-78367666D01*
X139443666Y-77367666D02*
X139443666Y-77501000D01*
X139477000Y-77567666D01*
X139510333Y-77601000D01*
X139610333Y-77667666D01*
X139743666Y-77701000D01*
X140010333Y-77701000D01*
X140077000Y-77667666D01*
X140110333Y-77634333D01*
X140143666Y-77567666D01*
X140143666Y-77434333D01*
X140110333Y-77367666D01*
X140077000Y-77334333D01*
X140010333Y-77301000D01*
X139843666Y-77301000D01*
X139777000Y-77334333D01*
X139743666Y-77367666D01*
X139710333Y-77434333D01*
X139710333Y-77567666D01*
X139743666Y-77634333D01*
X139777000Y-77667666D01*
X139843666Y-77701000D01*
G04 #@! TO.C,C1*
X154618500Y-74602166D02*
X154651833Y-74635500D01*
X154685166Y-74735500D01*
X154685166Y-74802166D01*
X154651833Y-74902166D01*
X154585166Y-74968833D01*
X154518500Y-75002166D01*
X154385166Y-75035500D01*
X154285166Y-75035500D01*
X154151833Y-75002166D01*
X154085166Y-74968833D01*
X154018500Y-74902166D01*
X153985166Y-74802166D01*
X153985166Y-74735500D01*
X154018500Y-74635500D01*
X154051833Y-74602166D01*
X154685166Y-73935500D02*
X154685166Y-74335500D01*
X154685166Y-74135500D02*
X153985166Y-74135500D01*
X154085166Y-74202166D01*
X154151833Y-74268833D01*
X154185166Y-74335500D01*
G04 #@! TO.C,J3*
X154685166Y-88617333D02*
X154685166Y-88950666D01*
X153985166Y-88950666D01*
X154651833Y-88117333D02*
X154685166Y-88184000D01*
X154685166Y-88317333D01*
X154651833Y-88384000D01*
X154585166Y-88417333D01*
X154318500Y-88417333D01*
X154251833Y-88384000D01*
X154218500Y-88317333D01*
X154218500Y-88184000D01*
X154251833Y-88117333D01*
X154318500Y-88084000D01*
X154385166Y-88084000D01*
X154451833Y-88417333D01*
X154685166Y-87484000D02*
X153985166Y-87484000D01*
X154651833Y-87484000D02*
X154685166Y-87550666D01*
X154685166Y-87684000D01*
X154651833Y-87750666D01*
X154618500Y-87784000D01*
X154551833Y-87817333D01*
X154351833Y-87817333D01*
X154285166Y-87784000D01*
X154251833Y-87750666D01*
X154218500Y-87684000D01*
X154218500Y-87550666D01*
X154251833Y-87484000D01*
X154685166Y-86784000D02*
X154685166Y-87184000D01*
X154685166Y-86984000D02*
X153985166Y-86984000D01*
X154085166Y-87050666D01*
X154151833Y-87117333D01*
X154185166Y-87184000D01*
G04 #@! TO.C,J4*
X145631047Y-68141904D02*
X146126285Y-68141904D01*
X145859619Y-68446666D01*
X145973904Y-68446666D01*
X146050095Y-68484761D01*
X146088190Y-68522857D01*
X146126285Y-68599047D01*
X146126285Y-68789523D01*
X146088190Y-68865714D01*
X146050095Y-68903809D01*
X145973904Y-68941904D01*
X145745333Y-68941904D01*
X145669142Y-68903809D01*
X145631047Y-68865714D01*
X146469142Y-68865714D02*
X146507238Y-68903809D01*
X146469142Y-68941904D01*
X146431047Y-68903809D01*
X146469142Y-68865714D01*
X146469142Y-68941904D01*
X146773904Y-68141904D02*
X147269142Y-68141904D01*
X147002476Y-68446666D01*
X147116761Y-68446666D01*
X147192952Y-68484761D01*
X147231047Y-68522857D01*
X147269142Y-68599047D01*
X147269142Y-68789523D01*
X147231047Y-68865714D01*
X147192952Y-68903809D01*
X147116761Y-68941904D01*
X146888190Y-68941904D01*
X146812000Y-68903809D01*
X146773904Y-68865714D01*
X147497714Y-68141904D02*
X147764380Y-68941904D01*
X148031047Y-68141904D01*
G04 #@! TO.C,J6*
X139934904Y-90824000D02*
X139134904Y-90824000D01*
X139934904Y-89985904D02*
X139553952Y-90252571D01*
X139934904Y-90443047D02*
X139134904Y-90443047D01*
X139134904Y-90138285D01*
X139173000Y-90062095D01*
X139211095Y-90024000D01*
X139287285Y-89985904D01*
X139401571Y-89985904D01*
X139477761Y-90024000D01*
X139515857Y-90062095D01*
X139553952Y-90138285D01*
X139553952Y-90443047D01*
G04 #@! TO.C,J7*
X144950806Y-88748887D02*
X145045087Y-88701747D01*
X145162938Y-88583896D01*
X145186508Y-88513185D01*
X145186508Y-88466044D01*
X145162938Y-88395334D01*
X145115797Y-88348193D01*
X145045087Y-88324623D01*
X144997946Y-88324623D01*
X144927235Y-88348193D01*
X144809384Y-88418904D01*
X144738674Y-88442474D01*
X144691533Y-88442474D01*
X144620822Y-88418904D01*
X144573682Y-88371764D01*
X144550112Y-88301053D01*
X144550112Y-88253912D01*
X144573682Y-88183202D01*
X144691533Y-88065351D01*
X144785814Y-88018210D01*
X145469351Y-88277483D02*
X144974376Y-87782508D01*
X145092227Y-87664657D01*
X145186508Y-87617516D01*
X145280789Y-87617516D01*
X145351500Y-87641087D01*
X145469351Y-87711797D01*
X145540061Y-87782508D01*
X145610772Y-87900359D01*
X145634342Y-87971070D01*
X145634342Y-88065351D01*
X145587202Y-88159632D01*
X145469351Y-88277483D01*
X145799334Y-87664657D02*
X146035036Y-87428955D01*
X145893615Y-87853219D02*
X145563632Y-87193252D01*
X146223598Y-87523235D01*
G04 #@! TO.C,J9*
X149352032Y-88849902D02*
X149459782Y-88796028D01*
X149594469Y-88661341D01*
X149621406Y-88580528D01*
X149621406Y-88526654D01*
X149594469Y-88445841D01*
X149540594Y-88391967D01*
X149459782Y-88365029D01*
X149405907Y-88365029D01*
X149325095Y-88391967D01*
X149190408Y-88472779D01*
X149109596Y-88499716D01*
X149055721Y-88499716D01*
X148974909Y-88472779D01*
X148921034Y-88418904D01*
X148894097Y-88338092D01*
X148894097Y-88284217D01*
X148921034Y-88203405D01*
X149055721Y-88068718D01*
X149163471Y-88014843D01*
X150214029Y-87934031D02*
X150214029Y-87987906D01*
X150160154Y-88095655D01*
X150106280Y-88149530D01*
X149998530Y-88203405D01*
X149890780Y-88203405D01*
X149809968Y-88176467D01*
X149675281Y-88095655D01*
X149594469Y-88014843D01*
X149513657Y-87880156D01*
X149486719Y-87799344D01*
X149486719Y-87691594D01*
X149540594Y-87583845D01*
X149594469Y-87529970D01*
X149702219Y-87476095D01*
X149756093Y-87476095D01*
X150779715Y-87476095D02*
X150510341Y-87745469D01*
X149944655Y-87179784D01*
G04 #@! TO.C,J12*
X154685166Y-82888833D02*
X154685166Y-83222166D01*
X153985166Y-83222166D01*
X154318500Y-82655500D02*
X154318500Y-82422166D01*
X154685166Y-82322166D02*
X154685166Y-82655500D01*
X153985166Y-82655500D01*
X153985166Y-82322166D01*
X154685166Y-82022166D02*
X153985166Y-82022166D01*
X153985166Y-81855500D01*
X154018500Y-81755500D01*
X154085166Y-81688833D01*
X154151833Y-81655500D01*
X154285166Y-81622166D01*
X154385166Y-81622166D01*
X154518500Y-81655500D01*
X154585166Y-81688833D01*
X154651833Y-81755500D01*
X154685166Y-81855500D01*
X154685166Y-82022166D01*
X154051833Y-81355500D02*
X154018500Y-81322166D01*
X153985166Y-81255500D01*
X153985166Y-81088833D01*
X154018500Y-81022166D01*
X154051833Y-80988833D01*
X154118500Y-80955500D01*
X154185166Y-80955500D01*
X154285166Y-80988833D01*
X154685166Y-81388833D01*
X154685166Y-80955500D01*
G04 #@! TO.C,J13*
X154685166Y-79270833D02*
X153985166Y-79270833D01*
X153985166Y-79104166D01*
X154018500Y-79004166D01*
X154085166Y-78937500D01*
X154151833Y-78904166D01*
X154285166Y-78870833D01*
X154385166Y-78870833D01*
X154518500Y-78904166D01*
X154585166Y-78937500D01*
X154651833Y-79004166D01*
X154685166Y-79104166D01*
X154685166Y-79270833D01*
X154685166Y-78570833D02*
X153985166Y-78570833D01*
X154318500Y-78570833D02*
X154318500Y-78170833D01*
X154685166Y-78170833D02*
X153985166Y-78170833D01*
X153985166Y-77937500D02*
X153985166Y-77537500D01*
X154685166Y-77737500D02*
X153985166Y-77737500D01*
X154685166Y-76937500D02*
X154685166Y-77337500D01*
X154685166Y-77137500D02*
X153985166Y-77137500D01*
X154085166Y-77204166D01*
X154151833Y-77270833D01*
X154185166Y-77337500D01*
X154685166Y-76270833D02*
X154685166Y-76670833D01*
X154685166Y-76470833D02*
X153985166Y-76470833D01*
X154085166Y-76537500D01*
X154151833Y-76604166D01*
X154185166Y-76670833D01*
G04 #@! TO.C,J16*
X154685166Y-70968333D02*
X154685166Y-71301666D01*
X153985166Y-71301666D01*
X154685166Y-70735000D02*
X153985166Y-70735000D01*
X153985166Y-70568333D01*
X154018500Y-70468333D01*
X154085166Y-70401666D01*
X154151833Y-70368333D01*
X154285166Y-70335000D01*
X154385166Y-70335000D01*
X154518500Y-70368333D01*
X154585166Y-70401666D01*
X154651833Y-70468333D01*
X154685166Y-70568333D01*
X154685166Y-70735000D01*
X154685166Y-69635000D02*
X154351833Y-69868333D01*
X154685166Y-70035000D02*
X153985166Y-70035000D01*
X153985166Y-69768333D01*
X154018500Y-69701666D01*
X154051833Y-69668333D01*
X154118500Y-69635000D01*
X154218500Y-69635000D01*
X154285166Y-69668333D01*
X154318500Y-69701666D01*
X154351833Y-69768333D01*
X154351833Y-70035000D01*
G04 #@! TO.C,J17*
X140017523Y-93114880D02*
X139541333Y-93114880D01*
X139493714Y-93591071D01*
X139541333Y-93543452D01*
X139636571Y-93495833D01*
X139874666Y-93495833D01*
X139969904Y-93543452D01*
X140017523Y-93591071D01*
X140065142Y-93686309D01*
X140065142Y-93924404D01*
X140017523Y-94019642D01*
X139969904Y-94067261D01*
X139874666Y-94114880D01*
X139636571Y-94114880D01*
X139541333Y-94067261D01*
X139493714Y-94019642D01*
X140350857Y-93114880D02*
X140684190Y-94114880D01*
X141017523Y-93114880D01*
G04 #@! TO.C,J18*
X139515857Y-86950357D02*
X139553952Y-86836071D01*
X139592047Y-86797976D01*
X139668238Y-86759880D01*
X139782523Y-86759880D01*
X139858714Y-86797976D01*
X139896809Y-86836071D01*
X139934904Y-86912261D01*
X139934904Y-87217023D01*
X139134904Y-87217023D01*
X139134904Y-86950357D01*
X139173000Y-86874166D01*
X139211095Y-86836071D01*
X139287285Y-86797976D01*
X139363476Y-86797976D01*
X139439666Y-86836071D01*
X139477761Y-86874166D01*
X139515857Y-86950357D01*
X139515857Y-87217023D01*
X139401571Y-86074166D02*
X139934904Y-86074166D01*
X139401571Y-86417023D02*
X139820619Y-86417023D01*
X139896809Y-86378928D01*
X139934904Y-86302738D01*
X139934904Y-86188452D01*
X139896809Y-86112261D01*
X139858714Y-86074166D01*
X139401571Y-85769404D02*
X139401571Y-85350357D01*
X139934904Y-85769404D01*
X139934904Y-85350357D01*
X139401571Y-85121785D02*
X139401571Y-84702738D01*
X139934904Y-85121785D01*
X139934904Y-84702738D01*
X139896809Y-84093214D02*
X139934904Y-84169404D01*
X139934904Y-84321785D01*
X139896809Y-84397976D01*
X139820619Y-84436071D01*
X139515857Y-84436071D01*
X139439666Y-84397976D01*
X139401571Y-84321785D01*
X139401571Y-84169404D01*
X139439666Y-84093214D01*
X139515857Y-84055119D01*
X139592047Y-84055119D01*
X139668238Y-84436071D01*
X139934904Y-83712261D02*
X139401571Y-83712261D01*
X139553952Y-83712261D02*
X139477761Y-83674166D01*
X139439666Y-83636071D01*
X139401571Y-83559880D01*
X139401571Y-83483690D01*
G04 #@! TO.C,J20*
X140025380Y-74517238D02*
X139549190Y-74850571D01*
X140025380Y-75088666D02*
X139025380Y-75088666D01*
X139025380Y-74707714D01*
X139073000Y-74612476D01*
X139120619Y-74564857D01*
X139215857Y-74517238D01*
X139358714Y-74517238D01*
X139453952Y-74564857D01*
X139501571Y-74612476D01*
X139549190Y-74707714D01*
X139549190Y-75088666D01*
X140025380Y-74183904D02*
X139358714Y-73660095D01*
X139358714Y-74183904D02*
X140025380Y-73660095D01*
G04 #@! TO.C,J21*
X139025380Y-71429476D02*
X139025380Y-70858047D01*
X140025380Y-71143761D02*
X139025380Y-71143761D01*
X140025380Y-70619952D02*
X139358714Y-70096142D01*
X139358714Y-70619952D02*
X140025380Y-70096142D01*
G04 #@! TO.C,J22*
X150869714Y-68180000D02*
X150793523Y-68141904D01*
X150679238Y-68141904D01*
X150564952Y-68180000D01*
X150488761Y-68256190D01*
X150450666Y-68332380D01*
X150412571Y-68484761D01*
X150412571Y-68599047D01*
X150450666Y-68751428D01*
X150488761Y-68827619D01*
X150564952Y-68903809D01*
X150679238Y-68941904D01*
X150755428Y-68941904D01*
X150869714Y-68903809D01*
X150907809Y-68865714D01*
X150907809Y-68599047D01*
X150755428Y-68599047D01*
X151250666Y-68408571D02*
X151250666Y-68941904D01*
X151250666Y-68484761D02*
X151288761Y-68446666D01*
X151364952Y-68408571D01*
X151479238Y-68408571D01*
X151555428Y-68446666D01*
X151593523Y-68522857D01*
X151593523Y-68941904D01*
X152317333Y-68941904D02*
X152317333Y-68141904D01*
X152317333Y-68903809D02*
X152241142Y-68941904D01*
X152088761Y-68941904D01*
X152012571Y-68903809D01*
X151974476Y-68865714D01*
X151936380Y-68789523D01*
X151936380Y-68560952D01*
X151974476Y-68484761D01*
X152012571Y-68446666D01*
X152088761Y-68408571D01*
X152241142Y-68408571D01*
X152317333Y-68446666D01*
G04 #@! TD*
M02*
